<svg width="66" height="70" viewBox="0 0 66 70" fill="none" xmlns="http://www.w3.org/2000/svg">
<path d="M21.4238 53.6922C21.4238 40.9973 21.4238 28.3583 21.4238 15.682C30.3663 15.682 39.2715 15.682 48.2326 15.682C48.2326 17.2502 48.2326 18.8557 48.2326 20.48C47.5418 20.6853 46.8511 20.9093 46.067 21.152C46.067 20.0506 46.067 19.0238 46.067 17.941C38.5807 17.941 31.1504 17.941 23.6828 17.941C23.6828 23.131 23.6828 28.3023 23.6828 33.567C27.8086 33.567 31.9345 33.567 36.1351 33.567C35.6123 37.6928 36.4524 41.408 38.7861 44.7497C41.101 48.0915 44.2934 50.1824 48.2699 51.1532C48.2699 51.9933 48.2699 52.8334 48.2699 53.7109C39.3275 53.6922 30.4036 53.6922 21.4238 53.6922ZM23.6641 38.0102C27.0432 38.0102 30.3476 38.0102 33.6521 38.0102C33.6521 37.2634 33.6521 36.554 33.6521 35.8446C30.2916 35.8446 26.9872 35.8446 23.6641 35.8446C23.6641 36.5727 23.6641 37.2634 23.6641 38.0102ZM23.6828 40.3252C23.6828 41.0719 23.6828 41.7814 23.6828 42.4908C27.0432 42.4908 30.3663 42.4908 33.6707 42.4908C33.6707 41.744 33.6707 41.0346 33.6707 40.3252C30.3103 40.3252 27.0059 40.3252 23.6828 40.3252ZM33.6894 44.8244C30.3103 44.8244 26.9872 44.8244 23.7015 44.8244C23.7015 45.5898 23.7015 46.2806 23.7015 46.99C27.0619 46.99 30.3663 46.99 33.6894 46.99C33.6894 46.2619 33.6894 45.5712 33.6894 44.8244ZM23.6828 49.2863C23.6828 50.0331 23.6828 50.7425 23.6828 51.4519C27.0432 51.4519 30.3663 51.4519 33.6707 51.4519C33.6707 50.7052 33.6707 49.9957 33.6707 49.2863C30.3103 49.2863 27.0059 49.2863 23.6828 49.2863Z" fill="#FFD400"/>
<path d="M19.2012 55.9512C29.6559 55.9512 40.0546 55.9512 50.5092 55.9512C50.5092 54.4576 50.5092 53.0014 50.5092 51.5079C51.2747 51.5079 51.9654 51.5079 52.7122 51.5079C52.7122 53.6922 52.7122 55.8951 52.7122 58.1541C40.8387 58.1541 28.9278 58.1541 16.9609 58.1541C16.9609 42.5281 16.9609 26.8834 16.9609 11.2014C28.8718 11.2014 40.7827 11.2014 52.7309 11.2014C52.7309 14.1698 52.7309 17.1195 52.7309 20.1066C52.0214 20.1066 51.3307 20.1066 50.5652 20.1066C50.5652 17.9223 50.5652 15.7193 50.5652 13.4604C40.0732 13.4604 29.6559 13.4604 19.2012 13.4604C19.2012 27.5929 19.2012 41.744 19.2012 55.9512Z" fill="#FFD400"/>
<path d="M63.5967 41.8C62.6819 39.4851 60.815 38.4956 58.556 38.0476C57.3799 37.8049 56.2037 37.4688 54.8969 37.1514C55.1022 36.9274 55.2329 36.7407 55.3823 36.61C56.5771 35.4899 57.2305 34.1084 57.2305 32.4468C57.2305 31.3827 57.2865 30.2812 57.1185 29.2358C56.6704 26.5287 54.3741 24.6245 51.6858 24.6058C49.0721 24.5872 46.6451 26.4914 46.2344 29.1237C46.0104 30.5053 46.0664 31.9614 46.1784 33.3616C46.2718 34.6685 46.9812 35.7326 47.952 36.5914C48.0827 36.7034 48.288 36.7594 48.456 36.8341C48.4 36.9274 48.3627 37.0208 48.3067 37.1141C48.1013 37.1888 47.896 37.2635 47.6906 37.3008C46.4958 37.5995 45.301 37.9169 44.0875 38.1782C42.0339 38.6263 40.5404 39.7651 39.7003 41.7254C37.3293 37.6742 37.46 30.6359 42.5006 25.9313C47.4106 21.3574 55.0089 21.1147 60.2362 25.4459C65.5942 29.9452 66.1917 37.0954 63.5967 41.8Z" fill="#FFD400"/>
<path d="M55.1213 31.364C55.0093 32.1481 55.0279 32.9882 54.7292 33.679C54.4305 34.3324 53.8144 34.8924 53.2544 35.3778C52.937 35.6579 52.7503 35.8632 52.769 36.274C52.8063 36.9647 52.8063 37.6741 52.769 38.3649C52.7503 38.7756 52.8623 38.9623 53.3104 39.0743C55.1773 39.5037 57.0255 39.9891 58.8737 40.4558C60.8713 40.9599 61.8421 42.2667 61.7301 44.3203C61.7114 44.5444 61.5994 44.8057 61.4501 44.9924C56.3348 50.6491 47.0002 50.6678 41.8849 44.9924C41.6795 44.7497 41.5862 44.339 41.5862 43.9843C41.5675 42.1547 42.557 40.9039 44.3492 40.4558C46.1788 40.0078 48.0084 39.541 49.8379 39.1117C50.3607 38.9996 50.622 38.7943 50.5287 38.2342C50.4913 38.0102 50.51 37.7675 50.5287 37.5435C50.6034 36.4606 50.6034 35.4899 49.4085 34.8551C48.9231 34.5937 48.5124 33.8283 48.4377 33.2496C48.3071 31.9987 48.251 30.6732 48.4564 29.4411C48.7551 27.7422 50.398 26.6781 52.0222 26.8834C53.7024 27.0888 54.9532 28.489 54.9906 30.2438C54.9906 30.6172 54.9906 30.9906 54.9906 31.364C55.0466 31.364 55.0839 31.364 55.1213 31.364Z" fill="#FFD400"/>
<path d="M52.7686 8.8864C40.8018 8.8864 28.8909 8.8864 16.9427 8.8864C16.9427 7.59824 16.8494 6.34741 16.9614 5.09659C17.1294 3.36036 18.6043 2.20288 20.4898 2.20288C28.9096 2.20288 37.3293 2.20288 45.7491 2.20288C46.9439 2.20288 48.12 2.20288 49.3149 2.20288C51.3125 2.22155 52.7313 3.6404 52.7686 5.65666C52.7873 6.72079 52.7686 7.78493 52.7686 8.8864ZM37.0493 4.49918C34.0436 4.49918 31.0939 4.49918 28.1815 4.49918C28.1815 5.26461 28.1815 5.95536 28.1815 6.66479C31.1685 6.66479 34.0996 6.66479 37.0493 6.66479C37.0493 5.91802 37.0493 5.22727 37.0493 4.49918ZM39.3829 4.46184C39.3829 5.24594 39.3829 5.95536 39.3829 6.64612C40.1297 6.64612 40.8204 6.64612 41.5299 6.64612C41.5299 5.89935 41.5299 5.18993 41.5299 4.46184C40.7831 4.46184 40.0924 4.46184 39.3829 4.46184Z" fill="#FFD400"/>
<path d="M16.9054 60.4878C28.8909 60.4878 40.7831 60.4878 52.7127 60.4878C52.7127 61.8133 52.8247 63.1201 52.6753 64.4083C52.4886 66.0512 51.0511 67.19 49.3896 67.19C39.6816 67.2087 29.9737 67.2087 20.2472 67.19C18.3616 67.19 16.9241 65.7338 16.8867 63.8669C16.8867 62.7654 16.9054 61.6639 16.9054 60.4878ZM30.3845 64.8937C33.3902 64.8937 36.3212 64.8937 39.2523 64.8937C39.2523 64.1283 39.2523 63.4375 39.2523 62.7281C36.2652 62.7281 33.3342 62.7281 30.3845 62.7281C30.3845 63.4748 30.3845 64.1656 30.3845 64.8937ZM21.4233 64.9124C22.1887 64.9124 22.8795 64.9124 23.5889 64.9124C23.5889 64.1656 23.5889 63.4748 23.5889 62.7468C22.8422 62.7468 22.1327 62.7468 21.4233 62.7468C21.4233 63.4935 21.4233 64.1843 21.4233 64.9124ZM48.2694 62.7468C47.504 62.7468 46.7946 62.7468 46.0851 62.7468C46.0851 63.4935 46.0851 64.2029 46.0851 64.8937C46.8506 64.8937 47.5413 64.8937 48.2694 64.8937C48.2694 64.1656 48.2694 63.4935 48.2694 62.7468Z" fill="#FFD400"/>
<path d="M25.9229 20.1626C31.897 20.1626 37.815 20.1626 43.8078 20.1626C43.8078 20.7973 43.8265 21.3948 43.7891 21.9922C43.7891 22.1415 43.6398 22.3282 43.5091 22.4216C39.4206 25.4459 38.4685 26.6408 36.6016 31.308C33.0731 31.308 29.526 31.308 25.9229 31.308C25.9229 27.6116 25.9229 23.9151 25.9229 20.1626Z" fill="#FFD400"/>
<path d="M9.942 44.7498C9.75531 44.003 9.58728 43.2749 9.36326 42.5655C9.10189 41.7067 8.1311 41.352 7.36567 41.8C6.74959 42.1734 6.13351 42.5468 5.55477 42.8828C4.37862 41.7067 3.22113 40.5492 2.00765 39.3171C2.34369 38.757 2.73574 38.1036 3.12779 37.4501C3.51984 36.7781 3.09045 35.7139 2.32502 35.5272C1.59693 35.3405 0.887502 35.1539 0.12207 34.9485C0.12207 33.3056 0.12207 31.6627 0.12207 29.9825C0.738149 29.8332 1.33556 29.6652 1.95164 29.5158C3.2398 29.1984 3.61318 28.3023 2.92243 27.1448C2.60506 26.6034 2.28768 26.062 1.98898 25.5766C3.1838 24.3818 4.32261 23.243 5.5361 22.0482C6.09617 22.3842 6.71225 22.7389 7.32833 23.1123C8.1311 23.5977 9.1579 23.187 9.38192 22.2909C9.56862 21.6001 9.73664 20.8907 9.92333 20.1626C11.4729 20.1626 13.0037 20.1626 14.5906 20.1626C14.5906 21.7308 14.5906 23.299 14.5906 24.8859C10.9128 24.1018 7.8884 25.0912 5.81613 28.265C4.06124 30.9346 4.04257 33.8284 5.74146 36.5167C7.79505 39.7651 10.8568 40.8106 14.6093 40.0078C14.6093 41.5947 14.6093 43.1442 14.6093 44.7311C13.0784 44.7498 11.5475 44.7498 9.942 44.7498Z" fill="#FFD400"/>
<path d="M14.6659 32.4469C14.6659 33.9777 14.6473 35.5273 14.6659 37.0581C14.6659 37.4502 14.5539 37.6369 14.1805 37.7676C11.9216 38.533 9.34524 37.7302 7.90772 35.7513C6.45153 33.7537 6.4702 31.1027 7.94506 29.1051C9.38258 27.1822 11.9402 26.3794 14.1805 27.1449C14.5539 27.2756 14.6846 27.4436 14.6659 27.8356C14.6473 29.3852 14.6659 30.916 14.6659 32.4469Z" fill="#FFD400"/>
<path d="M10.1846 64.9124C9.40049 64.9124 8.70973 64.9124 7.9443 64.9124C7.9443 64.6323 7.9443 64.3896 7.9443 64.1283C7.9443 61.5333 7.9443 58.9569 7.9443 56.3619C7.9443 55.9886 7.88829 55.7459 7.49624 55.5405C6.05873 54.7937 5.42398 53.2815 5.81603 51.7693C6.20808 50.2945 7.53358 49.2677 9.04578 49.249C10.558 49.249 11.9021 50.2572 12.2942 51.732C12.7049 53.2442 12.0702 54.7751 10.6513 55.5218C10.2406 55.7459 10.1659 55.9886 10.1659 56.3806C10.1846 58.9383 10.1659 61.5146 10.1659 64.0723C10.1846 64.3523 10.1846 64.6137 10.1846 64.9124Z" fill="#FFD400"/>
<path d="M59.4905 4.48059C60.2933 4.48059 60.984 4.48059 61.7308 4.48059C61.7308 4.76063 61.7308 5.02199 61.7308 5.26469C61.7308 7.85969 61.7308 10.436 61.7308 13.031C61.7308 13.4044 61.8054 13.6471 62.1788 13.8525C63.5977 14.5992 64.2511 16.1301 63.859 17.6236C63.467 19.0985 62.1415 20.1253 60.6293 20.1439C59.1171 20.1439 57.7729 19.1171 57.3809 17.6609C56.9702 16.1488 57.6049 14.6366 59.0238 13.8711C59.3971 13.6658 59.5092 13.4604 59.4905 13.0684C59.4718 10.4734 59.4905 7.89703 59.4905 5.30203C59.4905 5.04066 59.4905 4.7793 59.4905 4.48059Z" fill="#FFD400"/>
<path d="M61.7115 0C61.7115 0.728094 61.7115 1.41885 61.7115 2.16561C61.0021 2.16561 60.2927 2.16561 59.5459 2.16561C59.5459 1.45619 59.5459 0.746763 59.5459 0C60.2553 0 60.9461 0 61.7115 0Z" fill="#FFD400"/>
<path d="M8 67.2086C8.72809 67.2086 9.40018 67.2086 10.1283 67.2086C10.1283 67.918 10.1283 68.6275 10.1283 69.3929C9.43752 69.3929 8.72809 69.3929 8 69.3929C8 68.6461 8 67.9367 8 67.2086Z" fill="#FFD400"/>
<path d="M37.0494 4.49927C37.0494 5.24603 37.0494 5.93679 37.0494 6.66488C34.0811 6.66488 31.15 6.66488 28.1816 6.66488C28.1816 5.97412 28.1816 5.2647 28.1816 4.49927C31.094 4.49927 34.0437 4.49927 37.0494 4.49927Z" fill="#FFD400"/>
<path d="M39.3838 4.46191C40.1119 4.46191 40.784 4.46191 41.5307 4.46191C41.5307 5.19001 41.5307 5.89943 41.5307 6.64619C40.8213 6.64619 40.1306 6.64619 39.3838 6.64619C39.3838 5.95544 39.3838 5.24601 39.3838 4.46191Z" fill="#FFD400"/>
<path d="M30.3848 64.8936C30.3848 64.1469 30.3848 63.4561 30.3848 62.728C33.3531 62.728 36.2842 62.728 39.2526 62.728C39.2526 63.4188 39.2526 64.1282 39.2526 64.8936C36.3402 64.8936 33.3905 64.8936 30.3848 64.8936Z" fill="#FFD400"/>
<path d="M21.4238 64.9124C21.4238 64.1656 21.4238 63.4935 21.4238 62.7468C22.1519 62.7468 22.8613 62.7468 23.5894 62.7468C23.5894 63.4562 23.5894 64.1656 23.5894 64.9124C22.88 64.9124 22.1893 64.9124 21.4238 64.9124Z" fill="#FFD400"/>
<path d="M48.2702 62.7468C48.2702 63.4749 48.2702 64.1469 48.2702 64.8937C47.5608 64.8937 46.8514 64.8937 46.0859 64.8937C46.0859 64.2216 46.0859 63.5122 46.0859 62.7468C46.7954 62.7468 47.5048 62.7468 48.2702 62.7468Z" fill="#FFD400"/>
</svg>
