<svg width="191" height="72" viewBox="0 0 191 72" fill="none" xmlns="http://www.w3.org/2000/svg">
<path d="M190.362 30.0999C162.74 50.4739 129.217 61.2658 94.8965 60.8334C60.5757 60.401 27.3358 48.768 0.235352 27.7045L21.6928 0.0970459C42.7764 16.4839 68.6362 25.5341 95.337 25.8706C122.038 26.207 148.117 17.811 169.607 1.96056L190.362 30.0999Z" fill="#FFD400"/>
<path d="M125.567 58.2112C107.397 61.5772 88.7761 61.7191 70.557 58.6304L76.4014 24.1566C90.5755 26.5596 105.062 26.4492 119.198 23.8305L125.567 58.2112Z" fill="black"/>
<path d="M100.127 39.7186C101.391 39.7186 102.604 40.221 103.498 41.1152C104.392 42.0094 104.895 43.2222 104.895 44.4867V50.0495H101.716V44.4867C101.716 44.0652 101.548 43.661 101.25 43.3629C100.952 43.0648 100.548 42.8974 100.127 42.8974C99.705 42.8974 99.3007 43.0648 99.0027 43.3629C98.7046 43.661 98.5371 44.0652 98.5371 44.4867V50.0495H95.3584V44.4867C95.3584 43.2222 95.8608 42.0094 96.7549 41.1152C97.6491 40.221 98.8619 39.7186 100.127 39.7186V39.7186Z" stroke="#FFD400" stroke-linecap="round" stroke-linejoin="round"/>
<path d="M92.1787 40.5134H89V50.0496H92.1787V40.5134Z" stroke="#FFD400" stroke-linecap="round" stroke-linejoin="round"/>
<path d="M90.5894 38.1292C91.4672 38.1292 92.1787 37.4176 92.1787 36.5398C92.1787 35.662 91.4672 34.9504 90.5894 34.9504C89.7116 34.9504 89 35.662 89 36.5398C89 37.4176 89.7116 38.1292 90.5894 38.1292Z" stroke="#FFD400" stroke-linecap="round" stroke-linejoin="round"/>
</svg>
