<svg xmlns="http://www.w3.org/2000/svg" viewBox="0 0 237 115.5" fill="#fed401" xmlns:v="https://vecta.io/nano"><path d="M154.5 39.9v24.5c0 7.8-5.2 13-13 13h-48c-7.9 0-13.1-5.2-13.1-13.1V15.7c0-8 5.1-13.1 13.1-13.1h47.9c8.2 0 13.1 5.1 13.3 13.3-.2 7.9-.2 15.9-.2 24zm-5.3.1V15.9c0-5.4-2.7-8-8-8H93.8c-5.4 0-8 2.7-8 7.9v48c0 5.5 2.6 8 8 8H141c5.5 0 8-2.6 8-8 .2-8 .2-15.9.2-23.8zm-34.5-18.4v-5.9h5.5v6h7.8v5.5h-12.5l-2.4.1c-2.4.6-4 2.7-3.7 5.2.1 2.4 2 4.3 4.6 4.5h6.4c6.5 0 11 4.2 11.1 10.5.1 6.1-4 10.5-10.3 11-.1 0-.3 0-.6.1v5.9h-5.5v-6h-7.7V53h13.4c3.3 0 5.4-2 5.4-5.2 0-3.1-1.9-5.2-5-5.4-2.2-.1-4.2 0-6.4 0-6-.1-10.5-4.2-10.7-10-.3-5.6 4-10.2 10-10.7-.2.1.1.1.6-.1zM77.9 92.7c1.5 1.4 2.2 3 2.4 4.8h-2.7c-.3-1.3-.9-2.4-1.9-3.3-.9-.8-2.2-1.2-3.9-1.2-2 0-3.7.8-4.9 2.2s-1.9 3.7-1.9 6.7c0 2.5.6 4.5 1.7 6s2.8 2.3 5.1 2.3c2 0 3.6-.8 4.7-2.4.6-.8 1-2 1.3-3.4h2.7c-.2 2.3-1.1 4.1-2.5 5.6-1.6 1.8-3.8 2.7-6.6 2.7-2.4 0-4.4-.8-6-2.3-2.1-1.9-3.2-5-3.2-9.1 0-3.1.8-5.7 2.5-7.7 1.7-2.2 4.2-3.3 7.2-3.3 2.6.3 4.6 1 6 2.4zm13.7 10.2c.6-.1 1-.3 1.1-.8.1-.3.2-.6.2-1 0-.9-.3-1.5-.9-1.9-.7-.4-1.5-.6-2.6-.6-1.3 0-2.3.3-2.8 1.1-.3.4-.5 1-.6 1.8h-2.4c.1-1.9.7-3.2 1.8-3.9 1.1-.8 2.5-1.1 4-1.1 1.8 0 3.2.3 4.3 1s1.6 1.8 1.6 3.2v8.9c0 .3.1.5.2.7s.3.3.7.3h.4c.2 0 .3 0 .4-.1v1.9c-.4.1-.7.2-.9.3-.2 0-.5.1-.8.1-.9 0-1.5-.3-1.9-.9-.2-.3-.3-.8-.4-1.4-.5.7-1.2 1.3-2.2 1.8s-2 .8-3.2.8c-1.4 0-2.5-.4-3.4-1.3-.9-.8-1.3-1.9-1.3-3.3s.4-2.5 1.3-3.4c.9-.8 2-1.3 3.4-1.4l4-.8zm-5.3 7.1c.6.4 1.1.7 1.9.7.9 0 1.7-.3 2.6-.7 1.4-.7 2.1-1.8 2.1-3.4v-2.1c-.3.2-.7.3-1.2.5s-1 .3-1.5.3l-1.6.2c-.9.1-1.6.3-2 .6-.8.4-1.1 1.2-1.1 2.2 0 .7.3 1.3.8 1.7zm14.8-2.5c.1.8.2 1.5.7 2 .7.8 1.7 1.3 3.3 1.3.9 0 1.8-.2 2.5-.6s1.1-1.1 1.1-1.9c0-.7-.2-1.2-.8-1.5-.3-.3-1.1-.4-2.1-.8l-2-.5c-1.3-.3-2.2-.7-2.9-1.1-1.1-.7-1.6-1.7-1.6-2.9 0-1.4.5-2.7 1.6-3.5 1.1-.9 2.4-1.3 4.2-1.3 2.3 0 3.9.7 4.9 2 .7.8.9 1.8.9 2.8h-2.4c-.1-.6-.2-1.1-.6-1.6-.6-.7-1.6-1-3-1-1 0-1.7.2-2.2.6s-.7.8-.7 1.5.3 1.2 1 1.6c.4.3.9.4 1.6.7l1.6.4c1.8.4 3 .9 3.7 1.3 1 .7 1.5 1.7 1.5 3.1 0 1.3-.5 2.6-1.6 3.5-1 1-2.5 1.5-4.7 1.5s-3.8-.5-4.7-1.6a5.7 5.7 0 0 1-1.5-3.9l2.2-.1h0zm12.8-16.4h2.5V99c.6-.8 1.1-1.3 1.6-1.7.8-.6 1.8-.8 3-.8 2.2 0 3.7.8 4.4 2.3.4.8.7 2 .7 3.5v9.9h-2.6v-9.7c0-1.2-.2-1.9-.4-2.5-.5-.8-1.3-1.3-2.6-1.3-1.1 0-2 .3-2.9 1.1-.8.8-1.3 2.1-1.3 4.2v8.2h-2.5l.1-21.1h0zm24.3.1h4l6 17.8 5.9-17.8h3.9v21.1h-2.6V99.8v-2.2-3.2l-5.9 17.8h-2.8l-6-17.8v.7 2.3 2.3 12.5H138v-21h.2zm33.1 6.1c1 .5 1.8 1.2 2.3 2s.8 1.7 1 2.7c.2.7.2 1.8.2 3.4h-11c.1 1.6.4 2.8 1.1 3.8.7.9 1.7 1.4 3.1 1.4 1.3 0 2.4-.4 3.2-1.3.4-.5.7-1.1 1-1.8h2.5c-.1.6-.2 1.2-.7 1.9-.4.7-.8 1.3-1.2 1.7-.7.8-1.7 1.3-2.9 1.6-.6.2-1.3.3-2 .3-1.9 0-3.4-.7-4.7-2.1s-2-3.4-2-5.9.7-4.5 2-6 3-2.3 5.1-2.3c.9-.1 1.9.1 3 .6zm.9 6.1c-.1-1.1-.3-2-.7-2.7-.7-1.3-1.9-1.8-3.4-1.8a3.74 3.74 0 0 0-2.9 1.3c-.8.8-1.2 1.9-1.2 3.3h8.2z"/></svg>