<svg width="86" height="74" viewBox="0 0 86 74" fill="none" xmlns="http://www.w3.org/2000/svg">
<path d="M45.4217 0C47.0081 0.186077 48.6112 0.372154 50.1977 0.558231C50.4982 0.601172 50.7988 0.644113 51.0994 0.701367C52.1515 0.901758 52.7526 1.60313 52.5689 2.39037C52.3685 3.19194 51.5169 3.60703 50.4648 3.52115C47.793 3.27782 45.0877 2.8341 42.4159 2.90566C26.7687 3.33507 14.8622 9.40405 7.74841 21.3273C0.467577 33.5368 2.0206 45.5173 11.1216 56.7821C11.2719 56.9825 11.4556 57.1543 11.5391 57.2402C12.7916 57.0398 13.9438 56.7249 15.1127 56.7105C18.2522 56.6533 20.9908 58.5141 21.8258 61.1191C22.6441 63.6813 21.3749 66.4152 18.7365 67.8179C16.0813 69.235 12.6246 68.9344 10.3034 67.1022C8.01559 65.2987 7.36433 62.4074 8.80046 60.0313C9.13444 59.4731 9.06764 59.1439 8.65016 58.6715C3.62372 52.9604 0.78486 46.5336 0.133593 39.4054C0.116894 39.1907 0.0500975 38.9903 0 38.7899C0 37.3156 0 35.827 0 34.3527C0.267186 32.7352 0.484275 31.1035 0.834958 29.486C4.0078 14.8862 18.2188 2.97723 35.302 0.558231C36.8884 0.329213 38.4916 0.186077 40.078 0C41.8648 0 43.6349 0 45.4217 0ZM15.0125 59.5446C12.9919 59.559 11.3721 60.976 11.3721 62.6936C11.3721 64.4113 13.0253 65.8283 15.0292 65.8426C17.0665 65.8426 18.7198 64.4113 18.7031 62.6507C18.6864 60.9188 17.0331 59.5303 15.0125 59.5446Z" fill="black"/>
<path d="M40.0781 73.2857C38.4917 73.0997 36.8886 72.9136 35.3021 72.7275C35.035 72.6989 34.7511 72.6416 34.4839 72.5987C33.3984 72.384 32.8641 71.7542 33.0311 70.9097C33.198 70.0938 34.033 69.693 35.1017 69.7932C37.8571 70.0366 40.6292 70.4087 43.4012 70.3944C58.9314 70.3371 73.5432 61.8205 79.2042 49.4106C84.5312 37.7164 82.7611 26.7092 74.3448 16.4607C74.2279 16.3175 74.111 16.1887 73.9941 16.0599C73.9607 16.017 73.9106 15.9883 73.9774 16.0456C72.7249 16.246 71.5727 16.5609 70.4205 16.5752C67.2977 16.6325 64.5257 14.7574 63.7074 12.1809C62.8891 9.61878 64.1583 6.87056 66.7967 5.48214C69.5187 4.06509 72.8919 4.35137 75.2131 6.18351C77.5009 7.98703 78.1522 10.8927 76.716 13.2544C76.3821 13.8127 76.4656 14.1419 76.883 14.6142C81.8761 20.3254 84.7149 26.7522 85.3662 33.866C85.3829 34.0807 85.4497 34.2811 85.4998 34.4958C85.4998 35.9701 85.4998 37.4588 85.4998 38.9331C85.4497 39.1191 85.3996 39.3052 85.3662 39.4913C85.0823 41.1803 84.8986 42.8979 84.4812 44.5726C81.0578 58.7717 66.8802 70.4087 50.1978 72.7275C48.6114 72.9422 47.0082 73.0997 45.4218 73.2857C43.635 73.2857 41.8649 73.2857 40.0781 73.2857ZM70.4372 13.7411C72.4578 13.7554 74.111 12.367 74.1444 10.635C74.1778 8.88878 72.4912 7.44311 70.4539 7.44311C68.45 7.45742 66.8134 8.86016 66.7967 10.5921C66.7967 12.3241 68.4166 13.7268 70.4372 13.7411Z" fill="black"/>
<path d="M65.7779 48.0939C66.3123 48.5376 67.0304 49.0958 67.715 49.6827C68.6836 50.5129 68.6836 51.2572 67.6983 52.1017C65.4106 54.077 63.1061 56.0522 60.7849 58.0275C59.7829 58.872 58.9313 58.8577 57.9126 57.9989C57.2781 57.4693 56.6435 56.9254 56.0089 56.3958C55.9755 56.3671 55.9087 56.3528 56.0423 56.4101C53.9883 57.0971 52.0345 57.7412 50.1141 58.414C49.897 58.4999 49.6466 58.8004 49.6299 59.0008C49.5631 59.7308 49.6299 60.4751 49.5965 61.2194C49.5631 62.1355 48.9452 62.7081 47.8765 62.7081C44.4531 62.7224 41.0298 62.7224 37.6065 62.7081C36.5043 62.7081 35.8865 62.1355 35.8531 61.1765C35.8364 60.4608 35.8364 59.7451 35.8531 59.0295C35.8698 58.6716 35.7362 58.4999 35.302 58.371C33.3816 57.7556 31.4779 57.0971 29.3571 56.3814C28.8561 56.8395 28.2048 57.455 27.5202 58.0418C26.5516 58.872 25.6666 58.872 24.698 58.0561C22.3768 56.0665 20.0557 54.077 17.7345 52.0874C16.7993 51.2858 16.816 50.5272 17.7512 49.7256C18.4358 49.1388 19.1539 48.5805 19.705 48.1368C18.87 46.276 18.1186 44.587 17.3337 42.9266C17.2502 42.7549 16.8995 42.5831 16.6657 42.5831C15.8308 42.5402 14.9958 42.5831 14.1609 42.5688C12.9919 42.5545 12.3406 42.0106 12.3406 41.0086C12.324 38.1173 12.324 35.2402 12.3406 32.3489C12.3406 31.3326 12.9585 30.803 14.1442 30.7744C14.9791 30.7601 15.8141 30.803 16.649 30.7458C16.8995 30.7314 17.2502 30.5311 17.3504 30.345C18.1353 28.6989 18.8867 27.0385 19.7384 25.1778C19.204 24.7484 18.4692 24.2044 17.7846 23.6176C16.8494 22.816 16.8494 22.0574 17.7679 21.2558C20.0891 19.2662 22.4102 17.2766 24.7314 15.2871C25.7 14.4569 26.5683 14.4712 27.5536 15.2871C28.1047 15.7594 28.639 16.2604 29.2235 16.6898C29.4072 16.8186 29.808 16.8759 30.0418 16.8043C31.8286 16.2031 33.5987 15.5733 35.3521 14.9149C35.5859 14.829 35.8364 14.5427 35.8531 14.3424C35.9199 13.6124 35.8698 12.868 35.8865 12.1237C35.9199 11.2077 36.5377 10.6494 37.6065 10.6351C41.0298 10.6208 44.4531 10.6208 47.8765 10.6351C48.9786 10.6351 49.5965 11.2077 49.6299 12.1667C49.6466 12.8824 49.5965 13.598 49.6466 14.3137C49.6633 14.5141 49.847 14.8147 50.0473 14.8863C52.0011 15.559 53.9716 16.2031 56.1592 16.9188C56.6602 16.4608 57.3115 15.831 57.9961 15.2441C58.9313 14.4425 59.7996 14.4569 60.7515 15.2584C63.0894 17.248 65.4106 19.2233 67.715 21.2272C68.6669 22.0431 68.6502 22.8017 67.6816 23.6462C67.0137 24.2187 66.3123 24.7484 65.7779 25.1778C66.6129 27.0385 67.3644 28.7275 68.1492 30.3879C68.2327 30.5597 68.5834 30.7314 68.8172 30.7458C69.6521 30.7887 70.4871 30.7458 71.3221 30.7601C72.5077 30.7744 73.1423 31.304 73.1423 32.3059C73.159 35.1973 73.159 38.0743 73.1423 40.9657C73.1423 41.9963 72.491 42.5259 71.272 42.5402C70.437 42.5545 69.602 42.5115 68.7671 42.5688C68.55 42.5831 68.2327 42.7835 68.1492 42.9553C67.3477 44.587 66.6129 46.2617 65.7779 48.0939ZM69.769 33.6085C69.2681 33.6085 68.8506 33.6085 68.4331 33.6085C68.0156 33.6085 67.5981 33.6228 67.1807 33.6085C66.0785 33.5799 65.5275 33.222 65.277 32.3203C64.6591 30.073 63.6572 27.9689 62.221 26.0223C61.67 25.278 61.7701 24.6625 62.5049 24.0184C63.1061 23.4888 63.7573 23.0164 64.3585 22.5297C62.6051 21.0268 60.9686 19.6098 59.1985 18.0782C58.6808 18.5792 58.1297 19.1231 57.5453 19.6241C56.7103 20.3541 56.0256 20.4256 55.007 19.8674C52.8027 18.6794 50.4147 17.8492 47.8765 17.3339C46.7075 17.0906 46.29 16.6468 46.2733 15.6306C46.2566 14.9292 46.2733 14.2135 46.2733 13.4835C43.8854 13.4835 41.5809 13.4835 39.3098 13.4835C39.2764 13.5551 39.2263 13.598 39.2263 13.641C39.2096 14.3137 39.2096 14.9722 39.2096 15.6449C39.1929 16.6325 38.7754 17.1049 37.6733 17.3339C35.0849 17.8635 32.6635 18.708 30.3924 19.9247C29.4573 20.4256 28.7559 20.3541 27.9878 19.6813C27.3866 19.1517 26.8355 18.5935 26.3345 18.1211C24.5477 19.667 22.9112 21.0841 21.1912 22.5584C21.7256 22.9878 22.3601 23.4601 22.9446 23.9754C23.7462 24.6768 23.8297 25.2636 23.2285 26.0938C21.8425 27.9975 20.8739 30.0301 20.256 32.1914C19.9555 33.265 19.4545 33.5942 18.1353 33.6085C17.3337 33.6085 16.5488 33.6085 15.7473 33.6085C15.7473 35.684 15.7473 37.6449 15.7473 39.6775C16.649 39.6775 17.5007 39.6631 18.369 39.6775C19.4211 39.6918 19.9889 40.0496 20.2227 40.9227C20.8405 43.17 21.8425 45.2741 23.2619 47.235C23.8297 48.0223 23.7462 48.6378 22.978 49.2962C22.3768 49.8115 21.7089 50.2982 21.1077 50.7705C22.8945 52.2878 24.5477 53.6905 26.3011 55.1791C26.8188 54.7068 27.3699 54.1628 27.9544 53.6619C28.806 52.9319 29.4573 52.8746 30.4926 53.4185C32.6802 54.5779 35.0181 55.4224 37.5397 55.9234C38.8255 56.1811 39.2096 56.6391 39.2263 57.7985C39.2263 58.4712 39.2263 59.1583 39.2263 59.8167C41.6644 59.8167 43.9521 59.8167 46.2399 59.8167C46.2733 59.7165 46.29 59.6736 46.29 59.6306C46.29 58.9865 46.29 58.3424 46.3067 57.6983C46.3234 56.6248 46.7075 56.1954 47.9265 55.9377C50.4648 55.4224 52.8361 54.5779 55.0571 53.3899C56.059 52.846 56.727 52.9175 57.5787 53.6619C58.1631 54.1628 58.6975 54.7068 59.1985 55.1791C60.9686 53.6619 62.6218 52.2591 64.3585 50.7562C63.774 50.2838 63.1395 49.7972 62.5216 49.2676C61.7534 48.6092 61.6699 48.008 62.2544 47.2064C63.6571 45.2741 64.6591 43.1843 65.277 40.9657C65.5275 40.0496 66.0785 39.6918 67.164 39.6775C68.0156 39.6631 68.8673 39.6775 69.769 39.6775C69.769 37.6306 69.769 35.6553 69.769 33.6085Z" fill="black"/>
<path d="M58.0973 5.41068C57.1955 5.39636 56.4107 4.695 56.4608 3.90775C56.5109 3.13481 57.2623 2.54795 58.1641 2.56227C59.0992 2.57658 59.834 3.23501 59.7839 4.03657C59.7505 4.80951 58.9823 5.42499 58.0973 5.41068Z" fill="black"/>
<path d="M29.0899 69.3925C29.0565 70.1797 28.3218 70.7666 27.4033 70.738C26.5015 70.7237 25.7668 70.0796 25.7835 69.3066C25.8002 68.5051 26.6184 67.8609 27.5369 67.9039C28.4553 67.9468 29.1233 68.5909 29.0899 69.3925Z" fill="black"/>
<path d="M42.7506 24.8055C50.332 24.8055 56.5608 30.1302 56.5608 36.6286C56.5608 43.127 50.3487 48.466 42.7506 48.466C35.1692 48.466 28.9404 43.1413 28.9404 36.6429C28.9404 30.1445 35.1525 24.8199 42.7506 24.8055ZM53.221 36.6143C53.2043 31.6904 48.4617 27.654 42.7339 27.6683C36.9894 27.6826 32.2803 31.7476 32.297 36.6572C32.3137 41.5811 37.0562 45.6175 42.784 45.6032C48.5118 45.5889 53.2377 41.5238 53.221 36.6143Z" fill="black"/>
</svg>
