<svg width="65" height="70" viewBox="0 0 65 70" fill="none" xmlns="http://www.w3.org/2000/svg">
<path d="M21.3013 53.6922C21.3013 40.9973 21.3013 28.3583 21.3013 15.682C30.2438 15.682 39.1489 15.682 48.11 15.682C48.11 17.2502 48.11 18.8557 48.11 20.48C47.4193 20.6853 46.7285 20.9093 45.9444 21.152C45.9444 20.0506 45.9444 19.0238 45.9444 17.941C38.4581 17.941 31.0279 17.941 23.5602 17.941C23.5602 23.131 23.5602 28.3023 23.5602 33.567C27.6861 33.567 31.812 33.567 36.0125 33.567C35.4898 37.6928 36.3299 41.408 38.6635 44.7497C40.9785 48.0915 44.1709 50.1824 48.1474 51.1532C48.1474 51.9933 48.1474 52.8334 48.1474 53.7109C39.2049 53.6922 30.2811 53.6922 21.3013 53.6922ZM23.5416 38.0102C26.9207 38.0102 30.2251 38.0102 33.5295 38.0102C33.5295 37.2634 33.5295 36.554 33.5295 35.8446C30.1691 35.8446 26.8647 35.8446 23.5416 35.8446C23.5416 36.5727 23.5416 37.2634 23.5416 38.0102ZM23.5602 40.3252C23.5602 41.0719 23.5602 41.7814 23.5602 42.4908C26.9207 42.4908 30.2438 42.4908 33.5482 42.4908C33.5482 41.744 33.5482 41.0346 33.5482 40.3252C30.1877 40.3252 26.8833 40.3252 23.5602 40.3252ZM33.5668 44.8244C30.1877 44.8244 26.8646 44.8244 23.5789 44.8244C23.5789 45.5898 23.5789 46.2806 23.5789 46.99C26.9393 46.99 30.2438 46.99 33.5668 46.99C33.5668 46.2619 33.5668 45.5712 33.5668 44.8244ZM23.5602 49.2863C23.5602 50.0331 23.5602 50.7425 23.5602 51.4519C26.9207 51.4519 30.2438 51.4519 33.5482 51.4519C33.5482 50.7052 33.5482 49.9957 33.5482 49.2863C30.1877 49.2863 26.8833 49.2863 23.5602 49.2863Z" fill="black"/>
<path d="M19.0796 55.9512C29.5343 55.9512 39.933 55.9512 50.3877 55.9512C50.3877 54.4576 50.3877 53.0014 50.3877 51.5079C51.1531 51.5079 51.8438 51.5079 52.5906 51.5079C52.5906 53.6922 52.5906 55.8951 52.5906 58.1541C40.7171 58.1541 28.8062 58.1541 16.8394 58.1541C16.8394 42.5281 16.8394 26.8834 16.8394 11.2014C28.7502 11.2014 40.6611 11.2014 52.6093 11.2014C52.6093 14.1698 52.6093 17.1195 52.6093 20.1066C51.8999 20.1066 51.2091 20.1066 50.4437 20.1066C50.4437 17.9223 50.4437 15.7193 50.4437 13.4604C39.9517 13.4604 29.5343 13.4604 19.0796 13.4604C19.0796 27.5929 19.0796 41.744 19.0796 55.9512Z" fill="black"/>
<path d="M63.4746 41.8C62.5598 39.4851 60.6929 38.4956 58.4339 38.0476C57.2578 37.8049 56.0816 37.4688 54.7748 37.1514C54.9802 36.9274 55.1108 36.7407 55.2602 36.61C56.455 35.4899 57.1084 34.1084 57.1084 32.4468C57.1084 31.3827 57.1644 30.2812 56.9964 29.2358C56.5484 26.5287 54.2521 24.6245 51.5637 24.6058C48.9501 24.5872 46.5231 26.4914 46.1124 29.1237C45.8883 30.5053 45.9443 31.9614 46.0564 33.3616C46.1497 34.6685 46.8591 35.7326 47.8299 36.5914C47.9606 36.7034 48.166 36.7594 48.334 36.8341C48.278 36.9274 48.2406 37.0208 48.1846 37.1141C47.9793 37.1888 47.7739 37.2635 47.5685 37.3008C46.3737 37.5995 45.1789 37.9169 43.9654 38.1782C41.9118 38.6263 40.4183 39.7651 39.5782 41.7254C37.2072 37.6742 37.3379 30.6359 42.3785 25.9313C47.2885 21.3574 54.8868 21.1147 60.1142 25.4459C65.4722 29.9452 66.0696 37.0954 63.4746 41.8Z" fill="black"/>
<path d="M54.9992 31.364C54.8872 32.1481 54.9058 32.9882 54.6071 33.679C54.3084 34.3324 53.6924 34.8924 53.1323 35.3778C52.8149 35.6579 52.6282 35.8632 52.6469 36.274C52.6842 36.9647 52.6842 37.6741 52.6469 38.3649C52.6282 38.7756 52.7402 38.9623 53.1883 39.0743C55.0552 39.5037 56.9034 39.9891 58.7517 40.4558C60.7493 40.9599 61.7201 42.2667 61.608 44.3203C61.5894 44.5443 61.4774 44.8057 61.328 44.9924C56.2127 50.6491 46.8782 50.6678 41.7628 44.9924C41.5575 44.7497 41.4641 44.339 41.4641 43.9843C41.4455 42.1547 42.4349 40.9039 44.2271 40.4558C46.0567 40.0078 47.8863 39.541 49.7159 39.1117C50.2386 38.9996 50.5 38.7943 50.4066 38.2342C50.3693 38.0102 50.3879 37.7675 50.4066 37.5435C50.4813 36.4606 50.4813 35.4899 49.2865 34.8551C48.8011 34.5937 48.3904 33.8283 48.3157 33.2496C48.185 31.9987 48.129 30.6732 48.3343 29.4411C48.633 27.7422 50.2759 26.6781 51.9001 26.8834C53.5803 27.0888 54.8312 28.489 54.8685 30.2438C54.8685 30.6172 54.8685 30.9906 54.8685 31.364C54.9245 31.364 54.9619 31.364 54.9992 31.364Z" fill="black"/>
<path d="M52.6466 8.8864C40.6797 8.8864 28.7688 8.8864 16.8206 8.8864C16.8206 7.59824 16.7273 6.34741 16.8393 5.09659C17.0073 3.36036 18.4822 2.20288 20.3678 2.20288C28.7875 2.20288 37.2073 2.20288 45.627 2.20288C46.8218 2.20288 47.998 2.20288 49.1928 2.20288C51.1904 2.22155 52.6092 3.6404 52.6466 5.65666C52.6652 6.72079 52.6466 7.78493 52.6466 8.8864ZM36.9272 4.49918C33.9215 4.49918 30.9718 4.49918 28.0594 4.49918C28.0594 5.26461 28.0594 5.95536 28.0594 6.66479C31.0465 6.66479 33.9775 6.66479 36.9272 6.66479C36.9272 5.91802 36.9272 5.22727 36.9272 4.49918ZM39.2609 4.46184C39.2609 5.24594 39.2609 5.95536 39.2609 6.64612C40.0076 6.64612 40.6984 6.64612 41.4078 6.64612C41.4078 5.89935 41.4078 5.18993 41.4078 4.46184C40.661 4.46184 39.9703 4.46184 39.2609 4.46184Z" fill="black"/>
<path d="M16.7833 60.4878C28.7689 60.4878 40.6611 60.4878 52.5906 60.4878C52.5906 61.8133 52.7026 63.1201 52.5532 64.4083C52.3666 66.0512 50.929 67.19 49.2675 67.19C39.5596 67.2087 29.8517 67.2087 20.1251 67.19C18.2395 67.19 16.802 65.7338 16.7646 63.8669C16.7646 62.7654 16.7833 61.6639 16.7833 60.4878ZM30.2624 64.8937C33.2681 64.8937 36.1991 64.8937 39.1302 64.8937C39.1302 64.1283 39.1302 63.4375 39.1302 62.7281C36.1431 62.7281 33.2121 62.7281 30.2624 62.7281C30.2624 63.4748 30.2624 64.1656 30.2624 64.8937ZM21.3012 64.9124C22.0667 64.9124 22.7574 64.9124 23.4668 64.9124C23.4668 64.1656 23.4668 63.4748 23.4668 62.7468C22.7201 62.7468 22.0107 62.7468 21.3012 62.7468C21.3012 63.4935 21.3012 64.1843 21.3012 64.9124ZM48.1473 62.7468C47.3819 62.7468 46.6725 62.7468 45.9631 62.7468C45.9631 63.4935 45.9631 64.2029 45.9631 64.8937C46.7285 64.8937 47.4192 64.8937 48.1473 64.8937C48.1473 64.1656 48.1473 63.4935 48.1473 62.7468Z" fill="black"/>
<path d="M25.8013 20.1626C31.7754 20.1626 37.6935 20.1626 43.6862 20.1626C43.6862 20.7973 43.7049 21.3948 43.6676 21.9922C43.6676 22.1415 43.5182 22.3282 43.3875 22.4216C39.299 25.4459 38.3469 26.6408 36.48 31.308C32.9515 31.308 29.4044 31.308 25.8013 31.308C25.8013 27.6116 25.8013 23.9151 25.8013 20.1626Z" fill="black"/>
<path d="M9.81993 44.7498C9.63323 44.003 9.46521 43.2749 9.24119 42.5655C8.97982 41.7067 8.00903 41.352 7.2436 41.8C6.62752 42.1734 6.01144 42.5468 5.4327 42.8828C4.25655 41.7067 3.09906 40.5492 1.88558 39.3171C2.22162 38.757 2.61367 38.1036 3.00572 37.4501C3.39777 36.7781 2.96838 35.7139 2.20295 35.5272C1.47486 35.3405 0.765432 35.1539 0 34.9485C0 33.3056 0 31.6627 0 29.9825C0.616079 29.8332 1.21349 29.6652 1.82957 29.5158C3.11773 29.1984 3.49111 28.3023 2.80036 27.1448C2.48299 26.6034 2.16561 26.062 1.86691 25.5766C3.06173 24.3818 4.20054 23.243 5.41403 22.0482C5.9741 22.3842 6.59018 22.7389 7.20626 23.1123C8.00903 23.5977 9.03583 23.187 9.25985 22.2909C9.44654 21.6001 9.61457 20.8907 9.80126 20.1626C11.3508 20.1626 12.8817 20.1626 14.4685 20.1626C14.4685 21.7308 14.4685 23.299 14.4685 24.8859C10.7907 24.1018 7.76633 25.0912 5.69406 28.265C3.93917 30.9346 3.9205 33.8284 5.61939 36.5167C7.67298 39.7651 10.7347 40.8106 14.4872 40.0078C14.4872 41.5947 14.4872 43.1442 14.4872 44.7311C12.9563 44.7498 11.4255 44.7498 9.81993 44.7498Z" fill="black"/>
<path d="M14.5434 32.4469C14.5434 33.9777 14.5247 35.5273 14.5434 37.0581C14.5434 37.4502 14.4313 37.6369 14.058 37.7676C11.799 38.533 9.22268 37.7302 7.78516 35.7513C6.32898 33.7537 6.34764 31.1027 7.8225 29.1051C9.26002 27.1822 11.8177 26.3794 14.058 27.1449C14.4313 27.2756 14.562 27.4436 14.5434 27.8356C14.5247 29.3852 14.5434 30.916 14.5434 32.4469Z" fill="black"/>
<path d="M10.0625 64.9124C9.27842 64.9124 8.58766 64.9124 7.82223 64.9124C7.82223 64.6323 7.82223 64.3896 7.82223 64.1283C7.82223 61.5333 7.82223 58.9569 7.82223 56.3619C7.82223 55.9886 7.76622 55.7459 7.37417 55.5405C5.93665 54.7937 5.30191 53.2815 5.69396 51.7693C6.08601 50.2945 7.41151 49.2677 8.9237 49.249C10.4359 49.249 11.7801 50.2572 12.1721 51.732C12.5828 53.2442 11.9481 54.7751 10.5292 55.5218C10.1185 55.7459 10.0438 55.9886 10.0438 56.3806C10.0625 58.9383 10.0438 61.5146 10.0438 64.0723C10.0625 64.3523 10.0625 64.6137 10.0625 64.9124Z" fill="black"/>
<path d="M59.3679 4.48059C60.1707 4.48059 60.8615 4.48059 61.6082 4.48059C61.6082 4.76063 61.6082 5.02199 61.6082 5.26469C61.6082 7.85969 61.6082 10.436 61.6082 13.031C61.6082 13.4044 61.6829 13.6471 62.0563 13.8525C63.4751 14.5992 64.1285 16.1301 63.7365 17.6236C63.3444 19.0985 62.0189 20.1253 60.5067 20.1439C58.9945 20.1439 57.6504 19.1171 57.2583 17.6609C56.8476 16.1488 57.4824 14.6366 58.9012 13.8711C59.2746 13.6658 59.3866 13.4604 59.3679 13.0684C59.3493 10.4734 59.3679 7.89703 59.3679 5.30203C59.3679 5.04066 59.3679 4.7793 59.3679 4.48059Z" fill="black"/>
<path d="M61.5894 0C61.5894 0.728094 61.5894 1.41885 61.5894 2.16561C60.88 2.16561 60.1706 2.16561 59.4238 2.16561C59.4238 1.45619 59.4238 0.746763 59.4238 0C60.1333 0 60.824 0 61.5894 0Z" fill="black"/>
<path d="M7.87842 67.2086C8.60651 67.2086 9.2786 67.2086 10.0067 67.2086C10.0067 67.918 10.0067 68.6275 10.0067 69.3929C9.31594 69.3929 8.60651 69.3929 7.87842 69.3929C7.87842 68.6461 7.87842 67.9367 7.87842 67.2086Z" fill="black"/>
<path d="M36.9279 4.49927C36.9279 5.24603 36.9279 5.93679 36.9279 6.66488C33.9595 6.66488 31.0284 6.66488 28.0601 6.66488C28.0601 5.97412 28.0601 5.2647 28.0601 4.49927C30.9724 4.49927 33.9221 4.49927 36.9279 4.49927Z" fill="black"/>
<path d="M39.2612 4.46191C39.9893 4.46191 40.6614 4.46191 41.4082 4.46191C41.4082 5.19001 41.4082 5.89943 41.4082 6.64619C40.6987 6.64619 40.008 6.64619 39.2612 6.64619C39.2612 5.95544 39.2612 5.24601 39.2612 4.46191Z" fill="black"/>
<path d="M30.2627 64.8936C30.2627 64.1469 30.2627 63.4561 30.2627 62.728C33.2311 62.728 36.1621 62.728 39.1305 62.728C39.1305 63.4188 39.1305 64.1282 39.1305 64.8936C36.2181 64.8936 33.2684 64.8936 30.2627 64.8936Z" fill="black"/>
<path d="M21.3013 64.9124C21.3013 64.1656 21.3013 63.4935 21.3013 62.7468C22.0294 62.7468 22.7388 62.7468 23.4669 62.7468C23.4669 63.4562 23.4669 64.1656 23.4669 64.9124C22.7575 64.9124 22.0667 64.9124 21.3013 64.9124Z" fill="black"/>
<path d="M48.1481 62.7468C48.1481 63.4749 48.1481 64.1469 48.1481 64.8937C47.4387 64.8937 46.7293 64.8937 45.9639 64.8937C45.9639 64.2216 45.9639 63.5122 45.9639 62.7468C46.6733 62.7468 47.3827 62.7468 48.1481 62.7468Z" fill="black"/>
</svg>
