<svg width="84" height="72" viewBox="0 0 84 72" fill="none" xmlns="http://www.w3.org/2000/svg">
<path d="M83.9996 40.4647C83.6384 40.1192 83.2688 39.7736 82.916 39.4099C82.4456 38.928 81.9836 38.4551 81.5384 37.9459C81.3032 37.6822 81.0596 37.5822 80.7236 37.5822C76.7336 37.5913 72.752 37.5913 68.762 37.5913C68.594 37.5913 68.4344 37.5913 68.2412 37.5913C68.2412 34.0358 68.2412 30.5258 68.2412 26.934C68.4176 26.934 68.5856 26.934 68.762 26.934C73.6592 26.934 78.5564 26.934 83.4536 26.934C83.6384 26.934 83.8148 26.9158 83.9996 26.9067C83.9996 31.4261 83.9996 35.9454 83.9996 40.4647ZM70.9124 32.7173C70.8536 33.4811 70.8536 33.4811 71.492 33.4811C74.894 33.4811 78.296 33.4811 81.6896 33.4811C81.8492 33.4811 82.0172 33.4811 82.202 33.4811C82.202 33.1901 82.202 32.9628 82.202 32.7173C78.422 32.7173 74.6756 32.7173 70.9124 32.7173ZM70.9124 29.4528C70.8368 30.2076 70.8368 30.2076 71.4836 30.2076C73.1048 30.2076 74.726 30.2076 76.3556 30.2076C76.9856 30.2076 77.0024 30.1803 76.868 29.4528C74.894 29.4528 72.92 29.4528 70.9124 29.4528Z" fill="#FFD400"/>
<path d="M46.2837 0C47.0649 0.218237 47.7789 0.554685 48.3669 1.19121C48.4593 1.29123 48.7113 1.27305 48.8793 1.23667C49.2741 1.14574 49.6521 1.00025 50.1057 0.954786C49.8285 1.21849 49.5261 1.4731 49.2741 1.76408C49.1481 1.90957 48.9885 2.1369 49.0053 2.30058C49.0389 2.60975 49.3161 2.58247 49.5429 2.5461C49.7865 2.50972 50.0301 2.46426 50.3157 2.50063C50.0889 2.70977 49.8873 2.96438 49.6353 3.12806C49.3077 3.35539 49.2321 3.64637 49.2321 4.04648C49.2573 6.89265 48.4257 9.41146 46.7373 11.5756C44.7633 14.1036 42.2013 15.3584 39.1605 15.4403C37.3377 15.4857 35.7669 15.122 34.5825 14.4582C34.8849 14.4127 35.1117 14.3854 35.3301 14.34C36.5397 14.0854 37.6653 13.5852 38.6397 12.7669C38.7909 12.6396 38.8497 12.3849 38.9505 12.194C38.7741 12.1031 38.6061 11.9485 38.4297 11.9303C37.2201 11.7848 36.3129 11.1574 35.6577 9.99343C36.0609 9.92978 36.4137 9.92068 36.7329 9.81157C36.8925 9.75701 37.0017 9.52968 37.1361 9.38419C37.0017 9.25688 36.8925 9.04774 36.7329 9.00227C35.5065 8.62945 34.6833 7.80197 34.2717 6.50164C34.2297 6.36524 34.2045 6.21975 34.1625 6.02879C34.5489 6.10154 34.8849 6.20156 35.2209 6.21066C35.4057 6.21066 35.5989 6.05607 35.7837 5.96514C35.6913 5.78328 35.6409 5.54685 35.5065 5.41955C34.3893 4.4193 33.9441 3.17353 34.2129 1.62768C34.2381 1.4731 34.2969 1.31851 34.3389 1.16393C34.3893 1.12756 34.4481 1.08209 34.4985 1.04572C34.5825 1.2003 34.6497 1.38217 34.7589 1.50947C36.7329 3.64637 39.1269 4.78302 41.8905 5.03763C42.3525 5.0831 42.4533 4.90124 42.4365 4.39202C42.4113 3.81914 42.3945 3.23718 42.5037 2.6825C42.7893 1.26396 43.6713 0.463752 44.9481 0.118211C45.0573 0.0909309 45.1581 0.0454652 45.2589 0.00909237C45.6117 -8.32643e-07 45.9477 0 46.2837 0Z" fill="#FFD400"/>
<path d="M0 39.1008C0.0755999 38.7371 0.1344 38.3643 0.2352 38.0096C0.797999 36.0273 2.0328 34.7815 3.84719 34.1723C4.25879 34.0359 4.67039 33.9086 5.18279 33.7449C4.94759 33.5358 4.75439 33.3812 4.56959 33.2084C3.34319 32.0536 2.8896 30.5987 3.30959 28.9164C3.73799 27.1978 4.82999 26.143 6.46799 25.8702C7.61879 25.6792 8.56799 26.1884 9.42478 27.0978C8.08919 27.6979 7.13999 28.6527 6.77039 30.144C6.40079 31.6353 6.76199 32.9538 7.68599 34.1632C7.51799 34.2359 7.38359 34.2996 7.24919 34.3632C5.33399 35.1725 4.23359 36.6911 3.89759 38.8735C3.86399 39.0735 3.87239 39.2554 3.60359 39.2554C2.4528 39.2463 1.3104 39.2463 0.1596 39.2463C0.1092 39.2463 0.0503999 39.2099 0 39.1917C0 39.1554 0 39.1281 0 39.1008Z" fill="#FFD400"/>
<path d="M43.2178 53.9773C47.821 53.9773 52.4242 53.9773 57.0274 53.9773C57.985 53.9773 58.3798 54.4047 58.3798 55.4413C58.3798 60.4698 58.3798 65.4984 58.3798 70.5269C58.3798 71.5363 57.943 72 57.019 72C47.8126 72 38.5978 72 29.3915 72C28.4675 72 28.0391 71.5363 28.0391 70.5178C28.0391 65.4893 28.0391 60.4607 28.0391 55.4322C28.0391 54.4047 28.4423 53.9773 29.3999 53.9773C34.0114 53.9773 38.6146 53.9773 43.2178 53.9773ZM49.669 66.8715C49.669 65.4256 49.669 64.0162 49.669 62.5431C50.9962 62.5431 52.2814 62.5431 53.5834 62.5431C53.533 61.0882 53.0038 59.9606 52.0546 59.0331C50.425 57.4418 47.1238 57.5236 45.9646 59.9333C45.3178 61.2791 45.175 62.634 45.6958 64.0435C46.3258 65.7439 48.0478 66.9897 49.669 66.8715ZM36.4474 57.2872C36.4474 61.1155 36.4474 64.8891 36.4474 68.6628C37.195 68.6628 37.9006 68.6628 38.623 68.6628C38.623 64.8528 38.623 61.0791 38.623 57.2872C37.8838 57.2872 37.1782 57.2872 36.4474 57.2872ZM30.3575 60.5699C30.3575 63.2887 30.3575 65.9621 30.3575 68.7083C30.9791 68.7083 31.5755 68.6901 32.1719 68.7174C32.5331 68.7356 32.6171 68.5901 32.6087 68.2263C32.5919 65.8166 32.6003 63.4069 32.6003 60.9972C32.6003 60.8608 32.5835 60.7335 32.5751 60.5699C31.8359 60.5699 31.1135 60.5699 30.3575 60.5699ZM39.4714 60.5608C39.4714 63.2978 39.4714 65.9894 39.4714 68.6719C40.219 68.6719 40.9246 68.6719 41.6386 68.6719C41.6386 65.953 41.6386 63.2614 41.6386 60.5608C40.9078 60.5608 40.1938 60.5608 39.4714 60.5608ZM35.6242 68.6719C35.6242 66.5714 35.6242 64.4981 35.6158 62.4249C35.6158 62.3339 35.4814 62.1794 35.4058 62.1794C34.7506 62.1612 34.0954 62.1703 33.4235 62.1703C33.4235 64.3708 33.4235 66.5168 33.4235 68.6719C34.171 68.6719 34.8766 68.6719 35.6242 68.6719ZM50.4838 64.2435C50.4838 65.7803 50.4838 67.2897 50.4838 68.8083C52.6258 68.972 54.8602 66.535 54.667 64.2435C53.2894 64.2435 51.9118 64.2435 50.4838 64.2435Z" fill="#FFD400"/>
<path d="M67.3932 12.576C66.486 13.8035 66.486 14.8674 67.3848 15.8768C66.9648 16.3224 66.7128 16.8589 66.7128 17.5045C66.7128 18.1592 66.9228 18.7139 67.3848 19.1322C66.612 20.2142 66.5448 20.7507 66.99 21.9874C66.8892 21.9965 66.8052 22.0238 66.7128 22.0238C65.2176 22.0238 63.714 22.0238 62.2189 22.0238C61.6645 22.0238 61.3957 21.7328 61.3957 21.1327C61.3957 17.8136 61.3873 14.4946 61.4041 11.1756C61.4041 10.9483 61.5301 10.6755 61.6813 10.5118C63.252 8.84774 64.848 7.21096 66.4104 5.54691C66.5616 5.38323 66.654 5.09225 66.6708 4.84673C66.7128 4.3466 66.6792 3.84648 66.6876 3.34635C66.7044 2.62799 66.9564 2.38247 67.6116 2.35519C68.0232 2.33701 68.418 2.36429 68.67 2.7462C68.8212 2.97353 68.964 3.27361 68.9808 3.5464C69.0228 4.41935 69.0144 5.30139 68.9976 6.18343C68.9976 6.3562 68.8968 6.55625 68.7876 6.69265C67.8384 7.80202 66.8808 8.9023 65.9232 10.0117C65.7972 10.1572 65.6796 10.3027 65.4948 10.5118C65.94 10.5118 66.318 10.5118 66.738 10.5118C66.6708 11.3393 66.78 12.0485 67.3932 12.576Z" fill="#FFD400"/>
<path d="M9.24832 34.5268C8.08912 33.6902 7.34992 32.6809 7.36672 31.1987C7.37512 30.2712 7.68592 29.4892 8.27392 28.8254C9.57592 27.3796 11.5583 27.2704 12.8267 28.589C13.6583 29.4528 14.0279 30.4985 13.8683 31.7534C13.7171 32.9901 13.0031 33.8175 12.0035 34.5541C14.5319 35.0724 16.3463 36.2727 16.6991 39.228C12.6503 39.228 8.65192 39.228 4.59473 39.228C4.68713 37.9277 5.18273 36.882 6.05632 36.0181C6.92152 35.1543 8.03872 34.8815 9.24832 34.5268Z" fill="#FFD400"/>
<path d="M24.6623 60.3515C23.7719 59.6696 22.9655 59.0512 22.1591 58.442C21.5291 57.96 20.9075 57.469 20.2691 57.0052C20.1179 56.8961 19.9079 56.8416 19.7315 56.8416C17.3795 56.8325 15.0275 56.8325 12.6755 56.8325C11.6255 56.8325 11.0123 56.1687 11.0039 55.032C11.0039 52.686 11.0039 50.3308 11.0039 47.9848C11.0039 46.8572 11.6339 46.1843 12.6839 46.1843C16.5899 46.1843 20.4959 46.1843 24.4019 46.1934C24.7127 46.1934 25.0403 46.2662 25.3427 46.3753C25.9055 46.5753 26.1995 47.03 26.1995 47.6847C26.1995 49.9853 26.1995 52.295 26.1995 54.5955C26.1995 55.6322 25.5527 56.2414 24.8891 56.787C24.7043 56.9416 24.6707 57.0416 24.6707 57.2417C24.6623 58.2328 24.6623 59.2331 24.6623 60.3515ZM12.5999 55.1775C12.7343 55.1775 12.8855 55.1775 13.0283 55.1775C15.1955 55.1775 17.3711 55.2048 19.5383 55.1593C20.2775 55.1411 20.8907 55.3321 21.4535 55.8413C21.9491 56.2869 22.5119 56.6597 23.1083 57.1144C23.1083 56.7143 23.1083 56.4142 23.1083 56.1141C23.1083 55.814 23.1083 55.514 23.1083 55.1775C23.4443 55.1775 23.7215 55.1866 23.9987 55.1775C24.3935 55.1684 24.6623 54.8502 24.6623 54.4137C24.6539 52.4314 24.6371 50.4399 24.6287 48.4576C24.6287 48.2758 24.6287 48.103 24.6287 47.8848C20.6051 47.8848 16.6319 47.8848 12.5999 47.8848C12.5999 50.3126 12.5999 52.7133 12.5999 55.1775Z" fill="#FFD400"/>
<path d="M62.1512 66.4441C62.1512 66.144 62.1512 65.9439 62.1512 65.753C62.1596 65.2619 62.2184 64.78 61.6892 64.4708C61.5128 64.3708 61.4036 63.9798 61.3952 63.7252C61.37 62.0248 61.3868 60.3334 61.3616 58.633C61.3532 58.1783 61.5296 58.051 61.8992 58.051C64.856 58.051 67.8044 58.0601 70.7612 58.051C71.1476 58.051 71.2652 58.2147 71.2652 58.6239C71.2484 60.4425 71.2484 62.2612 71.2652 64.0798C71.2652 64.5163 71.1224 64.6618 70.7276 64.6618C68.8208 64.6527 66.9224 64.6436 65.0156 64.6618C64.7804 64.6618 64.52 64.7527 64.3184 64.8891C63.6212 65.362 62.9324 65.8803 62.1512 66.4441Z" fill="#FFD400"/>
<path d="M43.5622 52.7223C43.0162 52.7223 42.5458 52.7223 42.0586 52.7223C42.0586 41.5468 42.0586 30.3985 42.0586 19.2139C42.571 19.2139 43.0582 19.2139 43.5622 19.2139C43.5622 30.3621 43.5622 41.5195 43.5622 52.7223Z" fill="#FFD400"/>
<path d="M58.7245 26.1793C59.0773 26.5885 59.4049 26.9522 59.7493 27.3433C59.6821 27.4342 59.6401 27.5251 59.5729 27.5979C56.0113 31.2533 52.4413 34.9088 48.8713 38.5552C47.9641 39.4827 47.0653 40.4102 46.1749 41.3559C46.0405 41.4923 45.9397 41.7378 45.9397 41.9287C45.9145 43.9111 45.9061 45.8934 45.8977 47.8848C45.8893 49.367 45.8809 50.8492 45.8725 52.3405C45.8725 52.4587 45.8557 52.5769 45.8473 52.7224C45.3517 52.7224 44.8897 52.7224 44.3689 52.7224C44.3605 52.5769 44.3438 52.4314 44.3438 52.2859C44.3521 48.6304 44.3605 44.9841 44.3605 41.3286C44.3605 40.9921 44.4781 40.7648 44.6881 40.5375C47.1577 38.0096 49.6273 35.4817 52.0969 32.9447C54.2305 30.7532 56.3641 28.5708 58.4893 26.3794C58.5565 26.3248 58.6237 26.2703 58.7245 26.1793Z" fill="#FFD400"/>
<path d="M25.9473 27.3705C26.3169 26.9886 26.6697 26.6248 27.0393 26.2429C27.1149 26.3157 27.2157 26.3975 27.2997 26.4884C31.6173 31.1532 35.9349 35.8272 40.2608 40.4829C40.5212 40.7648 40.622 41.0467 40.6136 41.4377C40.5968 45.0113 40.5884 48.5849 40.58 52.1676C40.58 52.3313 40.58 52.495 40.58 52.7041C40.076 52.7041 39.5972 52.7041 39.0428 52.7041C39.0428 52.5314 39.0428 52.3586 39.0428 52.1858C39.0512 48.8486 39.0512 45.5205 39.0764 42.1833C39.0764 41.7559 38.9672 41.4558 38.69 41.1467C34.5405 36.6819 30.4077 32.199 26.2665 27.7251C26.1573 27.6251 26.0565 27.4978 25.9473 27.3705Z" fill="#FFD400"/>
<path d="M28.577 22.0056C27.8294 22.0056 27.149 22.0056 26.4434 22.0056C26.2754 18.4684 25.091 15.4131 22.7894 12.9215C20.4962 10.4391 17.699 9.15694 14.4482 8.97508C14.4482 8.21125 14.4482 7.4838 14.4482 6.68359C17.8586 6.80181 20.8742 8.02939 23.4446 10.4391C26.6954 13.458 28.3502 17.3317 28.577 22.0056Z" fill="#FFD400"/>
<path d="M65.0492 37.1184C65.2424 37.6185 65.4272 38.1005 65.6288 38.637C65.0324 38.9098 64.4528 39.1735 63.8816 39.4281C59.2784 41.4559 54.6668 43.4927 50.0636 45.5114C49.8032 45.6297 49.7108 45.7661 49.7108 46.0752C49.7108 48.103 49.694 50.1308 49.6856 52.1677C49.6856 52.3404 49.6856 52.5223 49.6856 52.7224C49.148 52.7224 48.6608 52.7224 48.1484 52.7224C48.1484 52.3768 48.1484 52.0495 48.1484 51.7221C48.1568 49.4761 48.1736 47.2392 48.1736 44.9931C48.1736 44.684 48.2324 44.5112 48.5264 44.3839C53.936 42.0106 59.3456 39.619 64.7468 37.2366C64.8308 37.1912 64.9232 37.1639 65.0492 37.1184Z" fill="#FFD400"/>
<path d="M36.7498 52.7224C36.2542 52.7224 35.7838 52.7224 35.2462 52.7224C35.2462 52.486 35.2462 52.2496 35.2462 52.0132C35.263 50.049 35.2714 48.0758 35.305 46.1117C35.3134 45.7297 35.1622 45.5933 34.8766 45.466C30.0298 43.2382 25.183 41.0013 20.3362 38.7734C20.2606 38.7371 20.185 38.6916 20.0674 38.6279C20.269 38.1278 20.4622 37.6368 20.6722 37.1094C21.5542 37.5095 22.4026 37.9005 23.2426 38.2915C27.6526 40.3284 32.0542 42.3562 36.4642 44.393C36.691 44.4931 36.8254 44.6022 36.8254 44.9114C36.8002 47.3665 36.8002 49.8217 36.7834 52.2678C36.7918 52.4042 36.7666 52.5497 36.7498 52.7224Z" fill="#FFD400"/>
<path d="M57.607 21.9964C57.607 21.8055 57.607 21.66 57.607 21.5145C57.607 18.3046 57.6154 15.0947 57.5986 11.8848C57.5986 11.4665 57.6994 11.3392 58.0858 11.3574C58.9174 11.3847 59.7574 11.3665 60.6226 11.3665C60.6226 14.931 60.6226 18.4501 60.6226 21.9964C59.6398 21.9964 58.657 21.9964 57.607 21.9964Z" fill="#FFD400"/>
<path d="M14.4482 12.2031C19.463 12.3395 23.4362 17.0225 23.4698 21.9965C22.781 21.9965 22.0922 21.9965 21.4286 21.9965C20.8238 17.5863 18.5306 15.0675 14.4566 14.4219C14.4482 13.7035 14.4482 12.967 14.4482 12.2031Z" fill="#FFD400"/>
<path d="M70.4927 12.2304C69.8963 12.2304 69.2915 12.2395 68.6951 12.2304C67.8803 12.2213 67.4519 11.7848 67.4435 10.9937C67.4351 10.2026 67.8971 9.72978 68.7119 9.72069C69.9551 9.71159 71.1983 9.71159 72.4415 9.72069C73.1135 9.72069 73.5251 10.1753 73.5503 10.9119C73.5755 11.6757 73.1975 12.1849 72.5003 12.2213C71.8367 12.2486 71.1647 12.2304 70.4927 12.2304Z" fill="#FFD400"/>
<path d="M70.4589 18.7592C69.8205 18.7592 69.1738 18.7683 68.5354 18.7592C67.855 18.7501 67.4434 18.2682 67.4434 17.5044C67.4518 16.7678 67.8634 16.295 68.527 16.2859C69.8373 16.2768 71.1477 16.2768 72.4665 16.2859C73.1553 16.295 73.5669 16.786 73.5585 17.5407C73.5501 18.3046 73.1385 18.7501 72.4329 18.7592C71.7693 18.7683 71.1141 18.7592 70.4589 18.7592Z" fill="#FFD400"/>
<path d="M70.4927 13.0214C71.1395 13.0214 71.7779 13.0123 72.4247 13.0214C73.1303 13.0305 73.5419 13.4851 73.5503 14.2399C73.5503 15.0037 73.1471 15.4856 72.4499 15.4947C71.1479 15.5129 69.8459 15.5129 68.5439 15.4947C67.8383 15.4856 67.4351 15.0037 67.4435 14.249C67.4435 13.4851 67.8635 13.0305 68.5691 13.0305C69.2075 13.0123 69.8459 13.0214 70.4927 13.0214Z" fill="#FFD400"/>
<path d="M69.7028 22.0329C69.2996 22.0329 68.888 22.042 68.4848 22.0329C67.88 22.0147 67.4852 21.5873 67.4432 20.9144C67.3928 20.2233 67.7456 19.6323 68.342 19.5959C69.266 19.5413 70.19 19.5323 71.1056 19.5959C71.744 19.6323 72.0632 20.1961 72.0128 20.9781C71.9708 21.6237 71.5592 22.0238 70.9208 22.0329C70.5176 22.0329 70.1144 22.0329 69.7028 22.0329Z" fill="#FFD400"/>
<path d="M17.0854 20.4416C17.0602 21.4782 16.2874 22.2693 15.3382 22.2329C14.4058 22.1965 13.6834 21.3691 13.7086 20.3597C13.7338 19.314 14.515 18.532 15.4978 18.5684C16.3966 18.6047 17.1106 19.4595 17.0854 20.4416Z" fill="#FFD400"/>
<path d="M47.3594 59.3695C49.5602 57.8146 52.3826 59.3604 52.727 61.7701C52.181 61.7701 51.635 61.7064 51.1058 61.7792C50.0306 61.9338 49.199 61.5791 48.5354 60.6334C48.2078 60.1788 47.771 59.806 47.3594 59.3695Z" fill="#FFD400"/>
<path d="M46.6616 60.1788C47.4092 60.9881 48.1232 61.761 48.8204 62.534C48.8708 62.5885 48.8876 62.6976 48.8876 62.7795C48.896 63.8343 48.8876 64.8891 48.8876 66.0167C47.762 65.7348 46.9639 65.0619 46.4767 63.998C45.9055 62.7431 45.9812 61.4792 46.6616 60.1788Z" fill="#FFD400"/>
<path d="M51.173 67.9081C51.173 67.0079 51.1646 66.1258 51.1814 65.2529C51.1814 65.171 51.299 65.0255 51.3662 65.0255C52.1894 65.0073 53.0042 65.0164 53.8274 65.0164C53.777 66.2804 52.4582 67.7353 51.173 67.9081Z" fill="#FFD400"/>
</svg>
