<svg width="86" height="74" viewBox="0 0 86 74" fill="none" xmlns="http://www.w3.org/2000/svg">
<path d="M45.4217 0.714233C47.0081 0.90031 48.6112 1.08639 50.1977 1.27246C50.4982 1.31541 50.7988 1.35835 51.0994 1.4156C52.1515 1.61599 52.7526 2.31736 52.5689 3.10461C52.3685 3.90617 51.5169 4.32126 50.4648 4.23538C47.793 3.99205 45.0877 3.54833 42.4159 3.6199C26.7687 4.04931 14.8622 10.1183 7.74841 22.0415C0.467577 34.251 2.0206 46.2315 11.1216 57.4963C11.2719 57.6967 11.4556 57.8685 11.5391 57.9544C12.7916 57.754 13.9438 57.4391 15.1127 57.4248C18.2522 57.3675 20.9908 59.2283 21.8258 61.8334C22.6441 64.3955 21.3749 67.1294 18.7365 68.5321C16.0813 69.9492 12.6246 69.6486 10.3034 67.8165C8.01559 66.0129 7.36433 63.1216 8.80046 60.7455C9.13444 60.1873 9.06764 59.8581 8.65016 59.3857C3.62372 53.6746 0.78486 47.2478 0.133593 40.1196C0.116894 39.9049 0.0500975 39.7045 0 39.5041C0 38.0298 0 36.5412 0 35.0669C0.267186 33.4495 0.484275 31.8177 0.834958 30.2003C4.0078 15.6004 18.2188 3.69147 35.302 1.27246C36.8884 1.04345 38.4916 0.90031 40.078 0.714233C41.8648 0.714233 43.6349 0.714233 45.4217 0.714233ZM15.0125 60.2589C12.9919 60.2732 11.3721 61.6902 11.3721 63.4079C11.3721 65.1255 13.0253 66.5425 15.0292 66.5569C17.0665 66.5569 18.7198 65.1255 18.7031 63.3649C18.6864 61.633 17.0331 60.2446 15.0125 60.2589Z" fill="#FFD400"/>
<path d="M40.0781 74C38.4917 73.8139 36.8886 73.6278 35.3021 73.4417C35.035 73.4131 34.7511 73.3559 34.4839 73.3129C33.3984 73.0982 32.8641 72.4684 33.0311 71.6239C33.198 70.808 34.033 70.4073 35.1017 70.5075C37.8571 70.7508 40.6292 71.1229 43.4012 71.1086C58.9314 71.0514 73.5432 62.5348 79.2042 50.1249C84.5312 38.4306 82.7611 27.4235 74.3448 17.1749C74.2279 17.0318 74.111 16.903 73.9941 16.7741C73.9607 16.7312 73.9106 16.7026 73.9774 16.7598C72.7249 16.9602 71.5727 17.2751 70.4205 17.2894C67.2977 17.3467 64.5257 15.4716 63.7074 12.8951C62.8891 10.333 64.1583 7.5848 66.7967 6.19638C69.5187 4.77933 72.8919 5.0656 75.2131 6.89774C77.5009 8.70126 78.1522 11.6069 76.716 13.9687C76.3821 14.5269 76.4656 14.8561 76.883 15.3285C81.8761 21.0396 84.7149 27.4664 85.3662 34.5803C85.3829 34.795 85.4497 34.9954 85.4998 35.2101C85.4998 36.6844 85.4998 38.173 85.4998 39.6473C85.4497 39.8334 85.3996 40.0195 85.3662 40.2055C85.0823 41.8945 84.8986 43.6122 84.4812 45.2869C81.0578 59.486 66.8802 71.1229 50.1978 73.4417C48.6114 73.6564 47.0082 73.8139 45.4218 74C43.635 74 41.8649 74 40.0781 74ZM70.4372 14.4553C72.4578 14.4696 74.111 13.0812 74.1444 11.3493C74.1778 9.60302 72.4912 8.15734 70.4539 8.15734C68.45 8.17165 66.8134 9.57439 66.7967 11.3063C66.7967 13.0383 68.4166 14.441 70.4372 14.4553Z" fill="#FFD400"/>
<path d="M65.7779 48.8081C66.3123 49.2518 67.0304 49.81 67.715 50.3969C68.6836 51.2271 68.6836 51.9714 67.6983 52.8159C65.4106 54.7912 63.1061 56.7665 60.7849 58.7417C59.7829 59.5862 58.9313 59.5719 57.9126 58.7131C57.2781 58.1835 56.6435 57.6396 56.0089 57.11C55.9755 57.0814 55.9087 57.0671 56.0423 57.1243C53.9883 57.8114 52.0345 58.4555 50.1141 59.1282C49.897 59.2141 49.6466 59.5147 49.6299 59.7151C49.5631 60.4451 49.6299 61.1894 49.5965 61.9337C49.5631 62.8498 48.9452 63.4223 47.8765 63.4223C44.4531 63.4366 41.0298 63.4366 37.6065 63.4223C36.5043 63.4223 35.8865 62.8498 35.8531 61.8907C35.8364 61.1751 35.8364 60.4594 35.8531 59.7437C35.8698 59.3859 35.7362 59.2141 35.302 59.0853C33.3816 58.4698 31.4779 57.8114 29.3571 57.0957C28.8561 57.5537 28.2048 58.1692 27.5202 58.7561C26.5516 59.5862 25.6666 59.5863 24.698 58.7704C22.3768 56.7808 20.0557 54.7912 17.7345 52.8016C16.7993 52 16.816 51.2414 17.7512 50.4398C18.4358 49.853 19.1539 49.2948 19.705 48.851C18.87 46.9903 18.1186 45.3013 17.3337 43.6409C17.2502 43.4691 16.8995 43.2974 16.6657 43.2974C15.8308 43.2544 14.9958 43.2973 14.1609 43.283C12.9919 43.2687 12.3406 42.7248 12.3406 41.7229C12.324 38.8315 12.324 35.9545 12.3406 33.0631C12.3406 32.0468 12.9585 31.5172 14.1442 31.4886C14.9791 31.4743 15.8141 31.5172 16.649 31.46C16.8995 31.4457 17.2502 31.2453 17.3504 31.0592C18.1353 29.4131 18.8867 27.7528 19.7384 25.892C19.204 25.4626 18.4692 24.9187 17.7846 24.3318C16.8494 23.5302 16.8494 22.7716 17.7679 21.9701C20.0891 19.9805 22.4102 17.9909 24.7314 16.0013C25.7 15.1711 26.5683 15.1854 27.5536 16.0013C28.1047 16.4736 28.639 16.9746 29.2235 17.404C29.4072 17.5328 29.808 17.5901 30.0418 17.5185C31.8286 16.9174 33.5987 16.2876 35.3521 15.6291C35.5859 15.5432 35.8364 15.257 35.8531 15.0566C35.9199 14.3266 35.8698 13.5823 35.8865 12.838C35.9199 11.9219 36.5377 11.3637 37.6065 11.3494C41.0298 11.335 44.4531 11.335 47.8765 11.3494C48.9786 11.3494 49.5965 11.9219 49.6299 12.8809C49.6466 13.5966 49.5965 14.3123 49.6466 15.028C49.6633 15.2283 49.847 15.5289 50.0473 15.6005C52.0011 16.2732 53.9716 16.9174 56.1592 17.633C56.6602 17.175 57.3115 16.5452 57.9961 15.9583C58.9313 15.1568 59.7996 15.1711 60.7515 15.9727C63.0894 17.9622 65.4106 19.9375 67.715 21.9414C68.6669 22.7573 68.6502 23.5159 67.6816 24.3604C67.0137 24.933 66.3123 25.4626 65.7779 25.892C66.6129 27.7528 67.3644 29.4418 68.1492 31.1021C68.2327 31.2739 68.5834 31.4457 68.8172 31.46C69.6521 31.5029 70.4871 31.46 71.3221 31.4743C72.5077 31.4886 73.1423 32.0182 73.1423 33.0202C73.159 35.9115 73.159 38.7886 73.1423 41.6799C73.1423 42.7105 72.491 43.2401 71.272 43.2544C70.437 43.2687 69.602 43.2258 68.7671 43.283C68.55 43.2973 68.2327 43.4977 68.1492 43.6695C67.3477 45.3013 66.6129 46.976 65.7779 48.8081ZM69.769 34.3227C69.2681 34.3227 68.8506 34.3227 68.4331 34.3227C68.0156 34.3227 67.5981 34.337 67.1807 34.3227C66.0785 34.2941 65.5275 33.9362 65.277 33.0345C64.6591 30.7873 63.6572 28.6831 62.221 26.7365C61.67 25.9922 61.7701 25.3767 62.5049 24.7326C63.1061 24.203 63.7573 23.7306 64.3585 23.244C62.6051 21.741 60.9686 20.324 59.1985 18.7924C58.6808 19.2934 58.1297 19.8373 57.5453 20.3383C56.7103 21.0683 56.0256 21.1399 55.007 20.5816C52.8027 19.3936 50.4147 18.5634 47.8765 18.0481C46.7075 17.8048 46.29 17.3611 46.2733 16.3448C46.2566 15.6434 46.2733 14.9278 46.2733 14.1978C43.8854 14.1978 41.5809 14.1978 39.3098 14.1978C39.2764 14.2693 39.2263 14.3123 39.2263 14.3552C39.2096 15.028 39.2096 15.6864 39.2096 16.3591C39.1929 17.3468 38.7754 17.8191 37.6733 18.0481C35.0849 18.5777 32.6635 19.4222 30.3924 20.6389C29.4573 21.1399 28.7559 21.0683 27.9878 20.3956C27.3866 19.866 26.8355 19.3077 26.3345 18.8354C24.5477 20.3813 22.9112 21.7983 21.1912 23.2726C21.7256 23.702 22.3601 24.1744 22.9446 24.6896C23.7462 25.391 23.8297 25.9779 23.2285 26.8081C21.8425 28.7118 20.8739 30.7443 20.256 32.9057C19.9555 33.9792 19.4545 34.3084 18.1353 34.3227C17.3337 34.3227 16.5488 34.3227 15.7473 34.3227C15.7473 36.3982 15.7473 38.3592 15.7473 40.3917C16.649 40.3917 17.5007 40.3774 18.369 40.3917C19.4211 40.406 19.9889 40.7638 20.2227 41.637C20.8405 43.8842 21.8425 45.9883 23.2619 47.9493C23.8297 48.7365 23.7462 49.352 22.978 50.0104C22.3768 50.5257 21.7089 51.0124 21.1077 51.4847C22.8945 53.002 24.5477 54.4047 26.3011 55.8933C26.8188 55.421 27.3699 54.8771 27.9544 54.3761C28.806 53.6461 29.4573 53.5888 30.4926 54.1328C32.6802 55.2922 35.0181 56.1367 37.5397 56.6376C38.8255 56.8953 39.2096 57.3533 39.2263 58.5127C39.2263 59.1855 39.2263 59.8725 39.2263 60.5309C41.6644 60.5309 43.9521 60.5309 46.2399 60.5309C46.2733 60.4308 46.29 60.3878 46.29 60.3449C46.29 59.7008 46.29 59.0566 46.3067 58.4125C46.3234 57.339 46.7075 56.9096 47.9265 56.652C50.4648 56.1367 52.8361 55.2922 55.0571 54.1041C56.059 53.5602 56.727 53.6318 57.5787 54.3761C58.1631 54.8771 58.6975 55.421 59.1985 55.8933C60.9686 54.3761 62.6218 52.9734 64.3585 51.4704C63.774 50.9981 63.1395 50.5114 62.5216 49.9818C61.7534 49.3234 61.6699 48.7222 62.2544 47.9206C63.6571 45.9883 64.6591 43.8985 65.277 41.6799C65.5275 40.7638 66.0785 40.406 67.164 40.3917C68.0156 40.3774 68.8673 40.3917 69.769 40.3917C69.769 38.3448 69.769 36.3696 69.769 34.3227Z" fill="#FFD400"/>
<path d="M58.0973 6.12491C57.1955 6.1106 56.4107 5.40923 56.4608 4.62198C56.5109 3.84905 57.2623 3.26219 58.1641 3.2765C59.0992 3.29082 59.834 3.94924 59.7839 4.7508C59.7505 5.52374 58.9823 6.13923 58.0973 6.12491Z" fill="#FFD400"/>
<path d="M29.0899 70.1067C29.0565 70.894 28.3218 71.4808 27.4033 71.4522C26.5015 71.4379 25.7668 70.7938 25.7835 70.0209C25.8002 69.2193 26.6184 68.5752 27.5369 68.6181C28.4553 68.6611 29.1233 69.3052 29.0899 70.1067Z" fill="#FFD400"/>
<path d="M42.7506 25.5198C50.332 25.5198 56.5608 30.8444 56.5608 37.3428C56.5608 43.8412 50.3487 49.1802 42.7506 49.1802C35.1692 49.1802 28.9404 43.8555 28.9404 37.3571C28.9404 30.8588 35.1525 25.5341 42.7506 25.5198ZM53.221 37.3285C53.2043 32.4046 48.4617 28.3682 42.7339 28.3825C36.9894 28.3968 32.2803 32.4619 32.297 37.3715C32.3137 42.2953 37.0562 46.3318 42.784 46.3175C48.5118 46.3031 53.2377 42.2381 53.221 37.3285Z" fill="#FFD400"/>
</svg>
