<?xml version="1.0" encoding="utf-8"?>
<!-- Generator: Adobe Illustrator 23.0.1, SVG Export Plug-In . SVG Version: 6.00 Build 0)  -->
<!DOCTYPE svg PUBLIC "-//W3C//DTD SVG 1.1//EN" "http://www.w3.org/Graphics/SVG/1.1/DTD/svg11.dtd" [
	<!ENTITY ns_extend "http://ns.adobe.com/Extensibility/1.0/">
	<!ENTITY ns_ai "http://ns.adobe.com/AdobeIllustrator/10.0/">
	<!ENTITY ns_graphs "http://ns.adobe.com/Graphs/1.0/">
	<!ENTITY ns_vars "http://ns.adobe.com/Variables/1.0/">
	<!ENTITY ns_imrep "http://ns.adobe.com/ImageReplacement/1.0/">
	<!ENTITY ns_sfw "http://ns.adobe.com/SaveForWeb/1.0/">
	<!ENTITY ns_custom "http://ns.adobe.com/GenericCustomNamespace/1.0/">
	<!ENTITY ns_adobe_xpath "http://ns.adobe.com/XPath/1.0/">
]>
<svg version="1.1" id="Layer_1" xmlns:x="&ns_extend;" xmlns:i="&ns_ai;" xmlns:graph="&ns_graphs;"
	 xmlns="http://www.w3.org/2000/svg" xmlns:xlink="http://www.w3.org/1999/xlink" x="0px" y="0px" viewBox="0 0 16 18.1"
	 style="enable-background:new 0 0 16 18.1;" xml:space="preserve">
<style type="text/css">
	.st0{fill:#FFD400;}
</style>
<metadata>
	<sfw  xmlns="&ns_sfw;">
		<slices></slices>
		<sliceSourceBounds  bottomLeftOrigin="true" height="7.4" width="5.4" x="44.8" y="50.3"></sliceSourceBounds>
	</sfw>
</metadata>
<g>
	<path class="st0" d="M7.4,5.9C6,5.9,4.8,7.1,4.8,8.5s1.2,2.7,2.7,2.7s2.7-1.2,2.7-2.7S8.9,5.9,7.4,5.9z M7.4,7
		c0.1,0,0.2,0.1,0.2,0.3C7.6,7.4,7.5,7.6,7.4,7.7C7.4,7.6,7.3,7.4,7.2,7.3C7.2,7.1,7.3,7,7.4,7z M6.3,9.9c0,0.1-0.1,0.1-0.2,0.1
		C5.9,10,5.8,10,5.8,9.9c0-0.9,0-1.8,0-2.6c0,0,0.1-0.2,0.2-0.2c0.1,0,0.2,0,0.3,0.2c0,0.6,0,1.2,0,1.8C6.6,8.7,6.8,8.4,7,8.2
		c0,0,0.1-0.1,0.2-0.1c0.1,0,0.1,0,0.1,0c0,0.2,0,0.4,0,0.6C7,9,6.6,9.5,6.3,9.9z M9.1,9.8C9,9.9,9,10,8.9,10c-0.1,0-0.2,0-0.3-0.1
		c-0.3-0.4-0.7-0.8-1-1.3c0-0.2,0-0.5,0-0.7c0,0,0.1,0,0.1,0c0.1,0,0.1,0.1,0.1,0.1C8.1,8.4,8.3,8.7,8.6,9c0-0.6,0-1.2,0-1.8
		C8.5,7.1,8.7,7,8.8,7C8.9,7,9,7.1,9.1,7.2C9.1,8.1,9.1,8.9,9.1,9.8z"/>
	<path class="st0" d="M5.7,11.7c0.2,0,0.3,0,0.4,0.1c0.1,0.1,0.1,0.2,0.1,0.3c0,0.1,0,0.2-0.1,0.3c0,0.1-0.1,0.1-0.2,0.2
		c-0.1,0-0.2,0.1-0.3,0.1H5.4l-0.1,0.3H4.9l0.2-1.2H5.7z M5.6,12.3c0.1,0,0.1,0,0.1,0c0,0,0-0.1,0-0.1c0-0.1-0.1-0.1-0.2-0.1H5.5
		l-0.1,0.3H5.6z"/>
	<path class="st0" d="M7.4,12l-0.2,0.9H6.8l0-0.1c-0.1,0.1-0.2,0.1-0.3,0.1c-0.1,0-0.1,0-0.2-0.1c-0.1,0-0.1-0.1-0.1-0.1
		c0-0.1-0.1-0.1-0.1-0.2c0-0.1,0-0.2,0.1-0.3c0-0.1,0.1-0.1,0.2-0.2C6.6,12,6.6,12,6.7,12c0.1,0,0.2,0,0.3,0.1L7,12H7.4z M6.6,12.5
		c0,0,0,0.1,0,0.1c0,0,0.1,0,0.1,0c0.1,0,0.1,0,0.1-0.1c0,0,0-0.1,0-0.2c0,0,0-0.1,0-0.1c0,0-0.1,0-0.1,0c-0.1,0-0.1,0-0.1,0.1
		C6.6,12.4,6.6,12.4,6.6,12.5z"/>
	<path class="st0" d="M7.9,12.1C8,12,8.1,12,8.2,12l-0.1,0.3c0,0-0.1,0-0.1,0c-0.1,0-0.1,0-0.2,0c0,0-0.1,0.1-0.1,0.1l-0.1,0.4H7.4
		L7.6,12L7.9,12.1L7.9,12.1z"/>
	<path class="st0" d="M8.7,12.5C8.7,12.6,8.7,12.6,8.7,12.5C8.7,12.6,8.7,12.6,8.7,12.5c0.1,0.1,0.1,0.1,0.2,0.1l0,0.3
		c-0.1,0-0.2,0.1-0.3,0.1c-0.1,0-0.2,0-0.3-0.1c-0.1-0.1-0.1-0.1-0.1-0.2c0,0,0-0.1,0-0.1l0-0.2H8.2L8.3,12h0.1l0.1-0.3h0.4L8.8,12
		H9l-0.1,0.3H8.7L8.7,12.5z"/>
	<path class="st0" d="M10.2,12l-0.6,1c-0.1,0.1-0.1,0.2-0.2,0.2c0,0-0.1,0.1-0.2,0.1c-0.1,0-0.1,0-0.2,0c-0.1,0-0.1,0-0.2,0
		c-0.1,0-0.1,0-0.1-0.1L9,12.9c0,0,0.1,0,0.1,0c0,0,0.1,0,0.1,0L9,12h0.4l0.1,0.5L9.8,12H10.2z"/>
</g>
</svg>
