<svg width="74" height="68" viewBox="0 0 74 68" fill="none" xmlns="http://www.w3.org/2000/svg">
<path d="M0 55.6509C0.114656 55.1541 0.210202 54.6381 0.363076 54.1413C1.50963 50.2239 4.01294 47.6059 7.94945 46.4594C8.50362 46.2874 8.56095 46.0199 8.56095 45.5421C8.56095 38.0704 8.56095 30.5987 8.56095 23.1079C8.56095 22.8212 8.54184 22.5346 8.58006 22.248C8.6565 21.6938 8.98135 21.388 9.53552 21.3498C10.1088 21.3116 10.5101 21.5791 10.6439 22.1524C10.7012 22.4199 10.7012 22.7257 10.7012 23.0123C10.7012 28.1909 10.7012 33.3695 10.7012 38.5673C10.7012 38.8348 10.7012 39.0832 10.7012 39.5036C10.9114 39.2552 11.0452 39.1405 11.1407 39.0068C12.3064 37.4016 13.7396 36.0831 15.4785 35.1085C15.9371 34.8601 16.09 34.5543 16.09 34.0384C16.0709 25.6112 16.0709 17.184 16.0709 8.73771C16.0709 7.51472 16.262 7.2663 17.5041 7.01788C16.1282 5.54646 14.7715 4.11327 13.3956 2.64186C12.0197 4.11327 10.6821 5.52735 9.36354 6.92233C9.76483 7.15164 10.2235 7.2663 10.4337 7.55293C10.6439 7.87779 10.6821 8.35552 10.7012 8.77593C10.7203 11.6805 10.7203 14.6043 10.7012 17.5089C10.7012 17.7764 10.7012 18.0439 10.6439 18.2923C10.5101 18.8656 10.147 19.1523 9.55463 19.1331C8.98135 19.114 8.63739 18.7892 8.56095 18.1968C8.54184 17.9675 8.54184 17.7191 8.54184 17.4897C8.54184 15.0247 8.54184 12.5787 8.54184 10.1136C8.54184 9.86516 8.54184 9.59763 8.54184 9.25366C7.89213 9.25366 7.31885 9.3301 6.76468 9.23455C6.4016 9.15811 5.9812 8.90969 5.75189 8.62305C5.44614 8.22176 5.61812 7.76314 5.96209 7.40006C8.15965 5.06873 10.319 2.7374 12.5166 0.44429C13.0898 -0.148097 13.6822 -0.148097 14.2555 0.44429C16.434 2.7374 18.6315 5.03051 20.7718 7.38095C21.0202 7.64848 21.1348 8.27909 21.0011 8.58484C20.8673 8.89058 20.3323 9.139 19.9501 9.21544C19.4341 9.3301 18.8608 9.23455 18.2876 9.23455C18.2876 17.4515 18.2876 25.5921 18.2876 33.6562C20.1412 33.4842 21.9948 33.2931 23.9057 33.102C23.9057 28.3629 23.9057 23.4901 23.9057 18.5217C23.3515 18.5217 22.7973 18.5981 22.2814 18.5025C21.8801 18.4261 21.3642 18.1968 21.2304 17.8719C21.0775 17.5662 21.1922 16.9356 21.4406 16.6681C23.5808 14.3176 25.7593 12.0245 27.9569 9.71228C28.511 9.11989 29.1416 9.11989 29.6958 9.71228C31.8551 12.0245 34.0145 14.3367 36.1929 16.6489C36.5369 17.012 36.728 17.4897 36.4223 17.8719C36.1738 18.1777 35.7343 18.4261 35.3521 18.5025C34.8553 18.6172 34.3011 18.5217 33.7278 18.5217C33.7278 20.2988 33.7278 22.0569 33.7278 23.7194C35.5623 23.127 37.4159 22.5155 39.346 21.8849C39.346 18.3497 39.346 14.6807 39.346 10.9353C38.7345 10.9353 38.1612 11.0117 37.607 10.9162C37.2439 10.8397 36.728 10.5913 36.6133 10.3047C36.4796 9.9607 36.5751 9.36831 36.8235 9.10079C38.9829 6.73124 41.1805 4.39991 43.378 2.08769C43.894 1.55263 44.5437 1.55263 45.0787 2.1068C47.2572 4.41902 49.4548 6.71213 51.595 9.06257C51.8434 9.3301 51.9581 9.94159 51.8243 10.2664C51.6906 10.5722 51.1746 10.8206 50.7733 10.9162C50.2574 11.0308 49.6841 10.9353 49.1108 10.9353C49.0917 11.1837 49.0535 11.3748 49.0535 11.5468C49.0535 15.5024 49.0535 19.4771 49.0726 23.4327C49.0726 23.6812 49.1681 24.0442 49.3592 24.1589C51.5186 25.4965 53.2957 27.2355 54.7289 29.5286C54.7289 26.7769 54.7289 24.1971 54.7289 21.5409C54.1365 21.5409 53.5633 21.6173 53.0091 21.5218C52.646 21.4454 52.1683 21.1969 52.0345 20.8912C51.9007 20.5855 51.9963 19.9931 52.2256 19.7446C54.4041 17.356 56.6207 15.0247 58.8374 12.6933C59.3343 12.1774 59.984 12.1774 60.4808 12.7124C62.6975 15.0438 64.9142 17.3942 67.0926 19.7829C67.3219 20.0313 67.3793 20.6237 67.2646 20.9294C67.1499 21.2161 66.6913 21.4645 66.3474 21.5409C65.7932 21.6365 65.2199 21.56 64.5702 21.56C64.5511 21.8658 64.532 22.1142 64.532 22.3626C64.532 24.6939 64.532 27.0444 64.532 29.3757C64.532 29.9108 64.4173 30.3885 63.9014 30.6369C63.1561 31 62.3917 30.4458 62.3917 29.5286C62.3726 27.1208 62.3917 24.713 62.3917 22.2862C62.3917 21.8658 62.3917 21.4263 62.3917 21.0059C62.3917 19.8211 62.5637 19.5918 63.8058 19.3433C62.4491 17.891 61.1114 16.477 59.6973 14.9864C58.3215 16.4387 56.9647 17.8719 55.6079 19.3242C56.8883 19.6682 56.9838 19.8211 56.9838 21.1396C56.9838 25.6685 56.9838 30.2165 56.9838 34.7454C56.9838 34.9938 56.9838 35.2614 56.9838 35.4525C58.8183 35.72 60.5764 35.9875 62.3917 36.255C62.3917 35.5671 62.3917 34.841 62.3917 34.1148C62.4108 33.3122 62.7739 32.8727 63.4427 32.8536C64.1116 32.8536 64.5129 33.2931 64.532 34.0766C64.5511 34.9747 64.5129 35.892 64.5511 36.7901C64.5702 37.0385 64.7422 37.3825 64.9524 37.4971C69.787 40.268 72.6152 44.3956 73.3222 49.9564C73.3413 50.0519 73.3987 50.1284 73.4369 50.2048C73.4369 51.1985 73.4369 52.2113 73.4369 53.2241C73.1502 54.4088 72.9592 55.6127 72.5961 56.7402C70.475 63.1991 64.5511 67.5751 57.7482 67.7089C54.7098 67.7662 51.6906 67.728 48.6522 67.728C47.754 67.728 47.2572 67.3267 47.2763 66.6388C47.2954 65.9699 47.8114 65.5686 48.7095 65.5686C51.5186 65.5686 54.3467 65.5686 57.1558 65.5686C64.1689 65.5686 69.7679 60.9251 71.0864 54.0458C72.5579 46.3829 66.806 38.6628 59.0476 37.8793C58.1495 37.7838 57.2322 37.8029 56.3341 37.8029C55.1875 37.8029 54.8818 37.5354 54.8054 36.4079C54.3658 30.2738 49.2063 24.9233 43.0723 24.2544C35.7916 23.4709 29.6385 27.9043 28.1288 35.0512C27.8995 36.0831 27.3836 36.3697 26.3517 36.0448C19.3004 33.7326 12.2299 37.8984 10.8732 45.1982C10.7776 45.7523 10.7394 46.3447 10.7012 46.8989C10.6439 47.8926 10.4145 48.141 9.36354 48.3321C6.99399 48.7525 5.08306 49.9564 3.74542 51.9629C1.83449 54.8292 1.60518 57.8676 3.21036 60.906C4.83464 63.9635 7.47172 65.5495 10.9496 65.5686C21.7463 65.5878 32.5431 65.5686 43.3398 65.5878C43.6264 65.5878 43.9131 65.5686 44.1997 65.626C44.7921 65.7597 45.117 66.1419 45.0596 66.7534C45.0214 67.3267 44.6775 67.6516 44.1042 67.728C43.9131 67.7471 43.722 67.7471 43.5309 67.7471C32.7533 67.7471 21.9948 67.7471 11.2171 67.7471C5.92387 67.7089 1.70072 64.5559 0.382185 59.683C0.24842 59.1479 0.133765 58.6129 0 58.0969C0 57.2752 0 56.4535 0 55.6509ZM41.5244 21.8084C43.3971 22.1715 45.117 22.4964 46.8941 22.8403C46.8941 22.6493 46.8941 22.3817 46.8941 22.1333C46.8941 18.235 46.8941 14.3558 46.9132 10.4575C46.9132 10.0371 46.9515 9.55941 47.1808 9.23455C47.391 8.94791 47.8687 8.83325 48.2509 8.62305C46.9323 7.22808 45.5756 5.79488 44.2188 4.32347C42.8239 5.81399 41.4862 7.24719 40.0912 8.7186C41.276 8.89058 41.5435 9.19633 41.5435 10.3047C41.5435 13.9163 41.5435 17.5089 41.5435 21.1205C41.5244 21.388 41.5244 21.6365 41.5244 21.8084ZM26.1033 33.5224C26.237 33.2931 26.2752 33.2358 26.2943 33.1593C27.2116 30.1783 28.8359 27.675 31.1863 25.6494C31.3774 25.4774 31.4921 25.1143 31.4921 24.8468C31.5112 22.5728 31.5112 20.3179 31.5112 18.0439C31.5112 16.7445 31.6449 16.5534 32.9061 16.2859C31.5303 14.8336 30.1735 13.4004 28.7977 11.929C27.4027 13.4195 26.0459 14.8527 24.6701 16.3241C25.8739 16.4961 26.1033 16.7636 26.1033 17.891C26.1033 23.0314 26.1033 28.1909 26.1033 33.5224Z" fill="#FFD400"/>
<path d="M49.875 43.8606C53.8115 43.8797 56.9645 47.0518 56.9454 50.9883C56.9263 54.9248 53.7159 58.097 49.7985 58.0779C45.9002 58.0587 42.709 54.8293 42.709 50.931C42.7281 47.0136 45.9576 43.8224 49.875 43.8606ZM49.8176 46.0008C47.085 46.0199 44.8683 48.2366 44.8683 50.9692C44.8874 53.6827 47.1423 55.9376 49.8558 55.9185C52.5885 55.8994 54.786 53.6636 54.786 50.931C54.7669 48.1793 52.5694 46.0008 49.8176 46.0008Z" fill="#FFD400"/>
<path d="M27.6514 43.6886C29.142 43.8606 30.4032 44.3765 31.5688 45.1982C32.1612 45.6186 32.295 46.2301 31.951 46.7461C31.588 47.2811 30.9765 47.3767 30.3267 46.9372C29.3713 46.2875 28.3394 45.8479 27.1737 46.0581C26.6578 46.1537 26.1036 46.4021 25.7405 46.7652C25.0526 47.434 25.3201 48.4277 26.1991 48.8099C27.3648 49.3067 28.5496 49.7462 29.6961 50.2431C30.9191 50.7781 31.9128 51.5807 32.3714 52.8802C32.9065 54.4089 32.2186 56.1478 30.728 57.1797C28.4731 58.7467 24.4602 58.097 22.7977 55.8803C22.4346 55.3835 22.4537 54.9057 22.8741 54.4471C23.2945 54.0076 23.9251 53.9885 24.4029 54.4662C25.2246 55.2688 26.18 55.7274 27.3075 55.8803C28.2247 55.995 29.0655 55.823 29.7726 55.1733C30.6134 54.3898 30.5943 53.4152 29.6961 52.7082C29.3522 52.4406 28.9318 52.2304 28.5114 52.0585C27.4986 51.6189 26.4858 51.2176 25.4539 50.8355C24.0971 50.3004 23.3136 49.3258 23.2181 47.8735C23.1226 46.383 23.7723 45.1982 25.0908 44.5103C25.8743 44.109 26.7915 43.9561 27.6514 43.6886Z" fill="#FFD400"/>
<path d="M36.6702 55.8613C36.9951 55.8613 37.2626 55.8613 37.5493 55.8613C38.5812 55.8613 39.6131 55.8422 40.6259 55.8804C41.2565 55.8995 41.696 56.3963 41.6387 56.9505C41.6004 57.5429 41.2565 57.9633 40.645 57.9824C38.906 58.0206 37.1671 58.0015 35.409 57.9824C34.8358 57.9633 34.5109 57.5811 34.4536 57.0078C34.4154 56.6065 34.4345 56.2052 34.4345 55.7848C34.4345 52.3261 34.4345 48.8673 34.4345 45.3894C34.4345 44.2237 34.7784 43.8798 35.9059 43.8798C37.32 43.8798 38.7149 43.8798 40.129 43.8798C41.1036 43.8798 41.6004 44.2428 41.6195 44.9308C41.6387 45.6378 41.1036 46.02 40.0908 46.02C38.9443 46.02 37.8168 46.02 36.632 46.02C36.632 47.3194 36.632 48.5424 36.632 49.861C37.7404 49.861 38.8105 49.861 39.8806 49.861C40.7787 49.861 41.2756 50.2431 41.2565 50.9502C41.2374 51.6381 40.7596 52.0203 39.8424 52.0203C38.7914 52.0203 37.7404 52.0203 36.6511 52.0203C36.6702 53.3006 36.6702 54.5045 36.6702 55.8613Z" fill="#FFD400"/>
</svg>
