<svg width="72" height="72" viewBox="0 0 72 72" fill="none" xmlns="http://www.w3.org/2000/svg">
<path d="M41.1652 17.961V10.9328C45.9652 12.0781 50.0087 14.2907 53.2957 17.5705C56.5826 20.8503 58.8 25.0412 59.9478 30.1432H52.9043C51.1304 24 47.2174 19.9393 41.1652 17.961ZM30.6783 17.961V10.9328C20.1391 13.0152 13.7217 19.4187 11.4261 30.1432H18.4696C20.0348 24.2082 24.1043 20.1475 30.6783 17.961ZM18.4696 39.8265H11.4261C12.4696 45.7614 14.5304 50.2386 17.6087 53.2581C20.687 56.2777 25.0435 58.3601 30.6783 59.5054V52.4772C27.9652 51.6443 25.4609 50.0304 23.1652 47.6356C20.8696 45.2408 19.3043 42.6377 18.4696 39.8265ZM67.4609 35.2972C67.4609 44.1475 64.3565 51.6703 58.1478 57.8655C51.9391 64.0607 44.4522 67.1584 35.687 67.1584C26.8174 67.1584 19.2783 64.0607 13.0696 57.8655C6.86087 51.6703 3.75652 44.1475 3.75652 35.2972C3.75652 26.4469 6.86087 18.898 13.0696 12.6508C19.2783 6.40347 26.8174 3.27983 35.687 3.27983C44.4522 3.27983 51.9391 6.40347 58.1478 12.6508C64.3565 18.898 67.4609 26.4469 67.4609 35.2972ZM64.3304 35.2972C64.3304 27.3839 61.5391 20.6161 55.9565 14.9935C50.3739 9.37093 43.6174 6.55965 35.687 6.55965C27.7565 6.55965 20.9739 9.3449 15.3391 14.9154C9.70435 20.4859 6.88696 27.2798 6.88696 35.2972C6.88696 43.2104 9.70435 49.9783 15.3391 55.6009C20.9739 61.2234 27.7565 64.0347 35.687 64.0347C43.6174 64.0347 50.3739 61.2234 55.9565 55.6009C61.5391 49.9783 64.3304 43.2104 64.3304 35.2972ZM35.687 49.8221C31.6174 49.8221 28.1739 48.3905 25.3565 45.5271C22.5391 42.6638 21.1304 39.2538 21.1304 35.2972C21.1304 31.2364 22.5391 27.8004 25.3565 24.9892C28.1739 22.1779 31.6174 20.7202 35.687 20.6161C39.6522 20.7202 43.0435 22.1779 45.8609 24.9892C48.6783 27.8004 50.1391 31.2364 50.2435 35.2972C50.1391 39.2538 48.6783 42.6638 45.8609 45.5271C43.0435 48.3905 39.6522 49.8221 35.687 49.8221ZM46.9565 35.2972C46.9565 32.1735 45.8609 29.4924 43.6696 27.2538C41.4783 25.0152 38.8174 23.8959 35.687 23.8959C32.5565 23.8959 29.8696 25.0152 27.6261 27.2538C25.3826 29.4924 24.2609 32.1735 24.2609 35.2972C24.2609 38.4208 25.3826 41.0759 27.6261 43.2625C29.8696 45.449 32.5565 46.5423 35.687 46.5423C38.8174 46.5423 41.4783 45.449 43.6696 43.2625C45.8609 41.0759 46.9565 38.4208 46.9565 35.2972ZM41.1652 52.4772V59.5054C51.6 57.1106 57.8609 50.551 59.9478 39.8265H52.9043C51.8609 42.7419 50.3217 45.3709 48.287 47.7137C46.2522 50.0564 43.8783 51.6443 41.1652 52.4772ZM68.5565 53.8829C67.513 53.8829 66.6522 54.2213 65.9739 54.898C65.2957 55.5748 64.9565 56.4338 64.9565 57.4751C64.9565 58.4121 65.2957 59.2191 65.9739 59.8959C66.6522 60.5727 67.513 60.9111 68.5565 60.9111C69.4957 60.9111 70.3043 60.5727 70.9826 59.8959C71.6609 59.2191 72 58.4121 72 57.4751C72 56.4338 71.6609 55.5748 70.9826 54.898C70.3043 54.2213 69.4957 53.8829 68.5565 53.8829ZM59.9478 62.9414C58.6957 62.9414 57.6261 63.3839 56.7391 64.269C55.8522 65.154 55.4087 66.2213 55.4087 67.4707C55.4087 68.7202 55.8522 69.7874 56.7391 70.6725C57.6261 71.5575 58.6957 72 59.9478 72C61.2 72 62.2696 71.5575 63.1565 70.6725C64.0435 69.7874 64.487 68.7202 64.487 67.4707C64.487 66.2213 64.0435 65.154 63.1565 64.269C62.2696 63.3839 61.2 62.9414 59.9478 62.9414ZM67.4609 42.3254C66 42.3254 65.2696 43.0542 65.2696 44.5119C65.2696 45.8655 66 46.5423 67.4609 46.5423C68.8174 46.5423 69.4957 45.8655 69.4957 44.5119C69.4957 43.0542 68.8174 42.3254 67.4609 42.3254ZM4.85217 66.3774C3.3913 66.3774 2.66087 67.1063 2.66087 68.564C2.66087 70.1258 3.3913 70.9067 4.85217 70.9067C5.47826 70.9067 6.02609 70.6725 6.49565 70.2039C6.96522 69.7354 7.2 69.1887 7.2 68.564C7.2 67.1063 6.41739 66.3774 4.85217 66.3774ZM4.22609 54.3514C2.76522 54.3514 2.03478 55.0803 2.03478 56.538C2.03478 57.9957 2.76522 58.7245 4.22609 58.7245C4.74783 58.7245 5.24348 58.5163 5.71304 58.0998C6.18261 57.6833 6.41739 57.1627 6.41739 56.538C6.41739 55.9132 6.18261 55.3926 5.71304 54.9761C5.24348 54.5597 4.74783 54.3514 4.22609 54.3514ZM11.2696 59.8178C10.4348 59.8178 9.73043 60.1302 9.15652 60.7549C8.58261 61.3796 8.29565 62.0564 8.29565 62.7853C8.29565 63.5141 8.58261 64.1909 9.15652 64.8156C9.73043 65.4403 10.4348 65.7527 11.2696 65.7527C12.1043 65.7527 12.8087 65.4403 13.3826 64.8156C13.9565 64.1909 14.2435 63.5141 14.2435 62.7853C14.2435 62.0564 13.9565 61.3796 13.3826 60.7549C12.8087 60.1302 12.1043 59.8178 11.2696 59.8178ZM68.5565 15.7744C67.513 15.7744 66.9913 16.295 66.9913 17.3362C66.9913 18.2733 67.513 18.7419 68.5565 18.7419C69.6 18.7419 70.1217 18.2733 70.1217 17.3362C70.1217 16.295 69.6 15.7744 68.5565 15.7744ZM2.50435 9.37093C0.834783 9.37093 0 10.256 0 12.026C0 13.692 0.834783 14.5249 2.50435 14.5249C4.17391 14.5249 5.0087 13.692 5.0087 12.026C5.0087 10.256 4.17391 9.37093 2.50435 9.37093ZM8.29565 0C7.46087 0 6.73043 0.312364 6.10435 0.937093C5.47826 1.56182 5.16522 2.34273 5.16522 3.27983C5.16522 4.1128 5.47826 4.84165 6.10435 5.46638C6.73043 6.09111 7.46087 6.40347 8.29565 6.40347C9.23478 6.40347 10.0174 6.09111 10.6435 5.46638C11.2696 4.84165 11.5826 4.1128 11.5826 3.27983C11.5826 2.34273 11.2696 1.56182 10.6435 0.937093C10.0174 0.312364 9.23478 0 8.29565 0ZM3.28696 19.8351C2.24348 19.8351 1.72174 20.4078 1.72174 21.5531C1.72174 22.5944 2.24348 23.115 3.28696 23.115C4.43478 23.115 5.0087 22.5944 5.0087 21.5531C5.0087 20.4078 4.43478 19.8351 3.28696 19.8351Z" fill="#FFD400"/>
</svg>
