<svg width="100" height="29" viewBox="0 0 100 29" fill="none" xmlns="http://www.w3.org/2000/svg">
<path d="M10.6094 19.9141L12.0508 14.5L14.7402 4.48047C14.1426 4.31641 13.5449 4.1875 12.9473 4.09375C12.7129 4.05859 12.4785 4.04102 12.2441 4.04102C12.0566 4.04102 11.8691 4.05273 11.6816 4.07617C11.3418 4.13477 11.043 4.25195 10.7852 4.42773C10.4805 4.65039 10.2227 4.91406 10.0117 5.21875C9.95312 5.28906 9.88281 5.33008 9.80078 5.3418H9.74805C9.67773 5.3418 9.60742 5.32422 9.53711 5.28906L8.86914 4.90234C8.77539 4.84375 8.7168 4.77344 8.69336 4.69141C8.68164 4.65625 8.67578 4.61523 8.67578 4.56836C8.67578 4.52148 8.6875 4.47461 8.71094 4.42773V4.41016C8.76953 4.29297 8.82227 4.18164 8.86914 4.07617C8.88086 4.05273 8.88672 4.03516 8.88672 4.02344C8.96875 3.84766 9.05664 3.67188 9.15039 3.49609C9.38477 3.09766 9.6543 2.72266 9.95898 2.37109C10.334 1.94922 10.7852 1.62109 11.3125 1.38672C11.957 1.11719 12.6484 0.970703 13.3867 0.947266H13.5098C14.4473 0.947266 15.3848 1.08203 16.3223 1.35156L17.5703 1.66797L19.5039 2.17773L20.5234 2.44141C21.1328 2.60547 21.7422 2.73438 22.3516 2.82812C22.5859 2.86328 22.8203 2.88086 23.0547 2.88086C23.2422 2.88086 23.4297 2.86914 23.6172 2.8457C23.957 2.79883 24.2559 2.68164 24.5137 2.49414C24.8184 2.27148 25.0762 2.01367 25.2871 1.7207C25.3457 1.63867 25.4277 1.5918 25.5332 1.58008H26.3945C26.5117 1.58008 26.5996 1.63281 26.6582 1.73828C26.7051 1.80859 26.7285 1.87891 26.7285 1.94922C26.7285 1.99609 26.7227 2.03711 26.7109 2.07227L26.623 2.40625V2.45898L26.5527 2.70508L19.8555 27.7363C19.7969 27.9121 19.6855 28 19.5215 28H18.9238C18.7715 28 18.666 27.9121 18.6074 27.7363L14.4941 12.7949L10.4863 27.7363C10.4277 27.9121 10.3223 28 10.1699 28H9.57227C9.4082 28 9.30273 27.9121 9.25586 27.7363L3.4375 6.55469C3.27344 5.95703 3.07422 5.36523 2.83984 4.7793C2.6875 4.38086 2.48242 4.01172 2.22461 3.67188C2.01367 3.41406 1.76758 3.21484 1.48633 3.07422C1.13477 2.93359 0.777344 2.8457 0.414062 2.81055C0.332031 2.78711 0.261719 2.74023 0.203125 2.66992C0.144531 2.59961 0.115234 2.51758 0.115234 2.42383V1.65039C0.115234 1.55664 0.144531 1.47461 0.203125 1.4043C0.273438 1.32227 0.355469 1.28125 0.449219 1.28125H0.466797C0.595703 1.26953 0.71875 1.25781 0.835938 1.24609H0.888672C1.07617 1.21094 1.26953 1.19336 1.46875 1.19336C1.9375 1.19336 2.40039 1.24023 2.85742 1.33398C3.4082 1.45117 3.91797 1.67969 4.38672 2.01953C4.9375 2.45313 5.40625 2.98047 5.79297 3.60156C6.29688 4.43359 6.67188 5.3418 6.91797 6.32617L10.6094 19.9141ZM24.2676 3.77734L21.7891 5.93945C21.6367 6.08008 21.4961 6.15039 21.3672 6.15039H21.2969C21.168 6.15039 21.0098 6.12109 20.8223 6.0625H20.7871C20.4004 5.96875 19.9961 5.86328 19.5742 5.74609C19.3516 5.6875 19.1523 5.63477 18.9766 5.58789L17.7285 5.25391L15.8477 4.76172L16.2871 6.32617L19.9785 19.9141L23.6348 6.13281L24.2676 3.77734ZM38.5059 25.873C38.0957 26.3887 37.6152 26.8281 37.0645 27.1914C36.6191 27.4961 36.127 27.707 35.5879 27.8242C35.0605 27.9414 34.5332 28 34.0059 28C33.4668 28 32.9453 27.9062 32.4414 27.7188C31.832 27.4961 31.293 27.1562 30.8242 26.6992C30.2852 26.1484 29.8691 25.5156 29.5762 24.8008C29.3887 24.332 29.2598 23.8457 29.1895 23.3418C29.1191 22.8262 29.084 22.3223 29.084 21.8301C29.084 21.3145 29.1367 20.7988 29.2422 20.2832C29.3477 19.7676 29.5293 19.2871 29.7871 18.8418C30.2559 18.0449 30.8828 17.4062 31.668 16.9258C32.5117 16.4453 33.4082 16.1172 34.3574 15.9414C35.3887 15.7656 36.4316 15.6777 37.4863 15.6777H38.1016V15.4844C38.1016 14.4648 38.0195 13.4688 37.8555 12.4961C37.75 11.7695 37.5332 11.0781 37.2051 10.4219C36.9941 10.0234 36.6895 9.71289 36.291 9.49023C35.916 9.32617 35.5234 9.24414 35.1133 9.24414C34.4922 9.24414 33.9238 9.39062 33.4082 9.68359C33.7363 10.1289 33.9004 10.6562 33.9004 11.2656C33.9004 11.9336 33.7012 12.502 33.3027 12.9707C32.916 13.4395 32.4531 13.6738 31.9141 13.6738C31.3633 13.6738 30.8887 13.4395 30.4902 12.9707C30.1035 12.502 29.9102 11.9336 29.9102 11.2656C29.9102 11.1953 29.916 11.125 29.9277 11.0547H29.9102C29.9219 10.832 29.9395 10.6152 29.9629 10.4043C30.0449 9.70117 30.3027 9.06836 30.7363 8.50586C30.9824 8.18945 31.2812 7.9375 31.6328 7.75C32.0312 7.53906 32.4414 7.375 32.8633 7.25781C33.332 7.14062 33.8008 7.05273 34.2695 6.99414C34.7617 6.94727 35.2539 6.92383 35.7461 6.92383C36.4844 6.92383 37.2051 7.0293 37.9082 7.24023C38.6934 7.50977 39.3379 7.96094 39.8418 8.59375C40.4746 9.4375 40.9082 10.3691 41.1426 11.3887C41.3301 12.127 41.4531 12.8945 41.5117 13.6914C41.582 14.4766 41.6172 15.2441 41.6172 15.9941V25.3457C41.6172 25.6621 41.7168 26.0254 41.916 26.4355C42.127 26.8457 42.3906 27.1035 42.707 27.209C42.8242 27.2559 42.8828 27.3262 42.8828 27.4199V27.7891C42.8828 27.8477 42.8594 27.9004 42.8125 27.9473C42.7656 27.9824 42.7129 28 42.6543 28H39.7012C39.584 28 39.4902 27.9473 39.4199 27.8418L38.5059 25.873ZM38.1016 17.998H37.4863C36.8652 17.998 36.2441 18.0742 35.623 18.2266C35.0137 18.3789 34.4629 18.6602 33.9707 19.0703C33.1504 19.7969 32.7402 20.7168 32.7402 21.8301C32.7402 22.3809 32.8223 22.9316 32.9863 23.4824C33.1152 23.9043 33.3145 24.2852 33.584 24.625C33.8066 24.9062 34.082 25.1172 34.4102 25.2578C34.7383 25.3984 35.0781 25.4688 35.4297 25.4688C35.7461 25.4688 36.0391 25.4219 36.3086 25.3281C36.5781 25.2227 36.8184 25.0469 37.0293 24.8008C37.4629 24.3203 37.8203 23.793 38.1016 23.2188V17.998ZM48.4199 9.38477C48.7715 8.91602 49.1816 8.50586 49.6504 8.1543C50.0254 7.86133 50.4297 7.65039 50.8633 7.52148C51.2969 7.39258 51.748 7.32812 52.2168 7.32812C52.5918 7.32812 52.9609 7.38086 53.3242 7.48633C53.7109 7.5918 54.0508 7.7793 54.3438 8.04883C54.6133 8.30664 54.8359 8.59961 55.0117 8.92773C55.2109 9.2793 55.3867 9.64844 55.5391 10.0352C55.5508 10.082 55.5566 10.1289 55.5566 10.1758C55.5566 10.2578 55.5273 10.3281 55.4688 10.3867L54.2031 11.6523C54.1328 11.7109 54.0566 11.7402 53.9746 11.7402H53.9219C53.8164 11.7168 53.7344 11.6582 53.6758 11.5645C53.4766 11.2012 53.1836 10.9375 52.7969 10.7734C52.3633 10.5859 51.9062 10.4922 51.4258 10.4922C50.8516 10.4922 50.3359 10.6562 49.8789 10.9844C49.3984 11.3477 49.0234 11.793 48.7539 12.3203V27.666C48.7539 27.7598 48.7188 27.8418 48.6484 27.9121C48.5898 27.9707 48.5137 28 48.4199 28H47.418C46.8203 28 46.3047 27.7891 45.8711 27.3672C45.4492 26.9336 45.2383 26.418 45.2383 25.8203V13.0762C45.2383 12.6074 45.2148 12.1211 45.168 11.6172C45.1211 11.1016 45.0215 10.6152 44.8691 10.1582C44.7402 9.81836 44.541 9.58398 44.2715 9.45508C44.0137 9.31445 43.709 9.24414 43.3574 9.24414H43.041C42.9473 9.24414 42.8652 9.21484 42.7949 9.15625C42.7363 9.08594 42.707 9.00391 42.707 8.91016V8.08398C42.707 7.99023 42.7363 7.91406 42.7949 7.85547C42.8652 7.78516 42.9473 7.75 43.041 7.75H45.5723C45.9121 7.75 46.2578 7.78516 46.6094 7.85547C46.9727 7.92578 47.3008 8.06641 47.5938 8.27734C47.9688 8.57031 48.2441 8.93945 48.4199 9.38477ZM65.6113 25.873C65.2012 26.3887 64.7207 26.8281 64.1699 27.1914C63.7246 27.4961 63.2324 27.707 62.6934 27.8242C62.166 27.9414 61.6387 28 61.1113 28C60.5723 28 60.0508 27.9062 59.5469 27.7188C58.9375 27.4961 58.3984 27.1562 57.9297 26.6992C57.3906 26.1484 56.9746 25.5156 56.6816 24.8008C56.4941 24.332 56.3652 23.8457 56.2949 23.3418C56.2246 22.8262 56.1895 22.3223 56.1895 21.8301C56.1895 21.3145 56.2422 20.7988 56.3477 20.2832C56.4531 19.7676 56.6348 19.2871 56.8926 18.8418C57.3613 18.0449 57.9883 17.4062 58.7734 16.9258C59.6172 16.4453 60.5137 16.1172 61.4629 15.9414C62.4941 15.7656 63.5371 15.6777 64.5918 15.6777H65.207V15.4844C65.207 14.4648 65.125 13.4688 64.9609 12.4961C64.8555 11.7695 64.6387 11.0781 64.3105 10.4219C64.0996 10.0234 63.7949 9.71289 63.3965 9.49023C63.0215 9.32617 62.6289 9.24414 62.2188 9.24414C61.5977 9.24414 61.0293 9.39062 60.5137 9.68359C60.8418 10.1289 61.0059 10.6562 61.0059 11.2656C61.0059 11.9336 60.8066 12.502 60.4082 12.9707C60.0215 13.4395 59.5586 13.6738 59.0195 13.6738C58.4688 13.6738 57.9941 13.4395 57.5957 12.9707C57.209 12.502 57.0156 11.9336 57.0156 11.2656C57.0156 11.1953 57.0215 11.125 57.0332 11.0547H57.0156C57.0273 10.832 57.0449 10.6152 57.0684 10.4043C57.1504 9.70117 57.4082 9.06836 57.8418 8.50586C58.0879 8.18945 58.3867 7.9375 58.7383 7.75C59.1367 7.53906 59.5469 7.375 59.9688 7.25781C60.4375 7.14062 60.9062 7.05273 61.375 6.99414C61.8672 6.94727 62.3594 6.92383 62.8516 6.92383C63.5898 6.92383 64.3105 7.0293 65.0137 7.24023C65.7988 7.50977 66.4434 7.96094 66.9473 8.59375C67.5801 9.4375 68.0137 10.3691 68.248 11.3887C68.4355 12.127 68.5586 12.8945 68.6172 13.6914C68.6875 14.4766 68.7227 15.2441 68.7227 15.9941V25.3457C68.7227 25.6621 68.8223 26.0254 69.0215 26.4355C69.2324 26.8457 69.4961 27.1035 69.8125 27.209C69.9297 27.2559 69.9883 27.3262 69.9883 27.4199V27.7891C69.9883 27.8477 69.9648 27.9004 69.918 27.9473C69.8711 27.9824 69.8184 28 69.7598 28H66.8066C66.6895 28 66.5957 27.9473 66.5254 27.8418L65.6113 25.873ZM65.207 17.998H64.5918C63.9707 17.998 63.3496 18.0742 62.7285 18.2266C62.1191 18.3789 61.5684 18.6602 61.0762 19.0703C60.2559 19.7969 59.8457 20.7168 59.8457 21.8301C59.8457 22.3809 59.9277 22.9316 60.0918 23.4824C60.2207 23.9043 60.4199 24.2852 60.6895 24.625C60.9121 24.9062 61.1875 25.1172 61.5156 25.2578C61.8438 25.3984 62.1836 25.4688 62.5352 25.4688C62.8516 25.4688 63.1445 25.4219 63.4141 25.3281C63.6836 25.2227 63.9238 25.0469 64.1348 24.8008C64.5684 24.3203 64.9258 23.793 65.207 23.2188V17.998ZM75.5078 16.3809L78.8652 10.7207C79.3223 9.93555 79.8965 9.25586 80.5879 8.68164C80.9629 8.37695 81.3789 8.16602 81.8359 8.04883C82.3047 7.91992 82.7793 7.85547 83.2598 7.85547H84.209C84.3027 7.85547 84.3789 7.89062 84.4375 7.96094C84.5078 8.01953 84.543 8.0957 84.543 8.18945V9.22656C84.543 9.32031 84.5078 9.40234 84.4375 9.47266C84.3789 9.53125 84.3027 9.56055 84.209 9.56055C83.6934 9.56055 83.2129 9.69531 82.7676 9.96484C82.2285 10.293 81.8008 10.7266 81.4844 11.2656L78.0918 16.9434L81.959 23.4121C82.416 24.2559 82.9727 25.0234 83.6289 25.7148C84.0859 26.1719 84.6191 26.4766 85.2285 26.6289C85.4043 26.6875 85.4922 26.793 85.4922 26.9453V27.7715C85.4922 27.8887 85.4395 27.9824 85.334 28.0527C85.0996 28.2051 84.8477 28.3164 84.5781 28.3867C84.25 28.4805 83.916 28.5273 83.5762 28.5273C82.6621 28.5273 81.8184 28.2637 81.0449 27.7363C80.541 27.4199 80.0957 27.0156 79.709 26.5234C79.3223 26.0312 78.9883 25.5332 78.707 25.0293L75.5078 19.4219V27.7715C75.5078 27.8652 75.4727 27.9414 75.4023 28C75.3438 28.0703 75.2676 28.1055 75.1738 28.1055H74.1895C73.5801 28.1055 73.0586 27.8945 72.625 27.4727C72.2031 27.0391 71.9922 26.5234 71.9922 25.9258V5.71094C71.9922 5.24219 71.9688 4.75586 71.9219 4.25195C71.875 3.73633 71.7754 3.25 71.623 2.79297C71.4941 2.45313 71.2949 2.21875 71.0254 2.08984C70.7676 1.94922 70.4629 1.87891 70.1113 1.87891H69.4785C69.3848 1.87891 69.3086 1.84961 69.25 1.79102C69.1797 1.7207 69.1445 1.63867 69.1445 1.54492V0.71875C69.1445 0.625 69.1797 0.548828 69.25 0.490234C69.3086 0.419922 69.3848 0.384766 69.4785 0.384766H72.3262C72.8184 0.384766 73.3105 0.455078 73.8027 0.595703C74.2715 0.759766 74.6289 1.05273 74.875 1.47461C75.1562 2.00195 75.3262 2.55859 75.3848 3.14453C75.4668 4.01172 75.5078 4.86719 75.5078 5.71094V16.3809ZM95.248 25.873C94.8379 26.3887 94.3574 26.8281 93.8066 27.1914C93.3613 27.4961 92.8691 27.707 92.3301 27.8242C91.8027 27.9414 91.2754 28 90.748 28C90.209 28 89.6875 27.9062 89.1836 27.7188C88.5742 27.4961 88.0352 27.1562 87.5664 26.6992C87.0273 26.1484 86.6113 25.5156 86.3184 24.8008C86.1309 24.332 86.002 23.8457 85.9316 23.3418C85.8613 22.8262 85.8262 22.3223 85.8262 21.8301C85.8262 21.3145 85.8789 20.7988 85.9844 20.2832C86.0898 19.7676 86.2715 19.2871 86.5293 18.8418C86.998 18.0449 87.625 17.4062 88.4102 16.9258C89.2539 16.4453 90.1504 16.1172 91.0996 15.9414C92.1309 15.7656 93.1738 15.6777 94.2285 15.6777H94.8438V15.4844C94.8438 14.4648 94.7617 13.4688 94.5977 12.4961C94.4922 11.7695 94.2754 11.0781 93.9473 10.4219C93.7363 10.0234 93.4316 9.71289 93.0332 9.49023C92.6582 9.32617 92.2656 9.24414 91.8555 9.24414C91.2344 9.24414 90.666 9.39062 90.1504 9.68359C90.4785 10.1289 90.6426 10.6562 90.6426 11.2656C90.6426 11.9336 90.4434 12.502 90.0449 12.9707C89.6582 13.4395 89.1953 13.6738 88.6562 13.6738C88.1055 13.6738 87.6309 13.4395 87.2324 12.9707C86.8457 12.502 86.6523 11.9336 86.6523 11.2656C86.6523 11.1953 86.6582 11.125 86.6699 11.0547H86.6523C86.6641 10.832 86.6816 10.6152 86.7051 10.4043C86.7871 9.70117 87.0449 9.06836 87.4785 8.50586C87.7246 8.18945 88.0234 7.9375 88.375 7.75C88.7734 7.53906 89.1836 7.375 89.6055 7.25781C90.0742 7.14062 90.543 7.05273 91.0117 6.99414C91.5039 6.94727 91.9961 6.92383 92.4883 6.92383C93.2266 6.92383 93.9473 7.0293 94.6504 7.24023C95.4355 7.50977 96.0801 7.96094 96.584 8.59375C97.2168 9.4375 97.6504 10.3691 97.8848 11.3887C98.0723 12.127 98.1953 12.8945 98.2539 13.6914C98.3242 14.4766 98.3594 15.2441 98.3594 15.9941V25.3457C98.3594 25.6621 98.459 26.0254 98.6582 26.4355C98.8691 26.8457 99.1328 27.1035 99.4492 27.209C99.5664 27.2559 99.625 27.3262 99.625 27.4199V27.7891C99.625 27.8477 99.6016 27.9004 99.5547 27.9473C99.5078 27.9824 99.4551 28 99.3965 28H96.4434C96.3262 28 96.2324 27.9473 96.1621 27.8418L95.248 25.873ZM94.8438 17.998H94.2285C93.6074 17.998 92.9863 18.0742 92.3652 18.2266C91.7559 18.3789 91.2051 18.6602 90.7129 19.0703C89.8926 19.7969 89.4824 20.7168 89.4824 21.8301C89.4824 22.3809 89.5645 22.9316 89.7285 23.4824C89.8574 23.9043 90.0566 24.2852 90.3262 24.625C90.5488 24.9062 90.8242 25.1172 91.1523 25.2578C91.4805 25.3984 91.8203 25.4688 92.1719 25.4688C92.4883 25.4688 92.7812 25.4219 93.0508 25.3281C93.3203 25.2227 93.5605 25.0469 93.7715 24.8008C94.2051 24.3203 94.5625 23.793 94.8438 23.2188V17.998Z" fill="#FFD400"/>
</svg>
