<svg width="72" height="72" viewBox="0 0 72 72" fill="none" xmlns="http://www.w3.org/2000/svg">
<path d="M61.7139 0H71.9996V10.2857H61.7139V0Z" fill="#FFD400"/>
<path d="M61.7139 15.4286H71.9996V25.7143H61.7139V15.4286Z" fill="#FFD400"/>
<path d="M46.2861 0H56.5718V10.2857H46.2861V0Z" fill="#FFD400"/>
<path d="M46.2861 15.4286H56.5718V25.7143H46.2861V15.4286Z" fill="#FFD400"/>
<path d="M66.8571 36V51.4285H5.14286V10.2857H36V5.14282H5.14286C3.77889 5.14282 2.47078 5.68466 1.50631 6.64913C0.541835 7.6136 0 8.92171 0 10.2857V51.4285C0 52.7925 0.541835 54.1006 1.50631 55.0651C2.47078 56.0296 3.77889 56.5714 5.14286 56.5714H25.7143V66.8571H15.4286V72H56.5714V66.8571H46.2857V56.5714H66.8571C68.2211 56.5714 69.5292 56.0296 70.4937 55.0651C71.4582 54.1006 72 52.7925 72 51.4285V36H66.8571ZM41.1429 66.8571H30.8571V56.5714H41.1429V66.8571Z" fill="#FFD400"/>
</svg>
