<svg width="72" height="73" viewBox="0 0 72 73" fill="none" xmlns="http://www.w3.org/2000/svg">
<path d="M61.7144 0.42041H72.0001V10.7061H61.7144V0.42041Z" fill="black"/>
<path d="M61.7144 15.849H72.0001V26.1347H61.7144V15.849Z" fill="black"/>
<path d="M46.2856 0.42041H56.5714V10.7061H46.2856V0.42041Z" fill="black"/>
<path d="M46.2856 15.849H56.5714V26.1347H46.2856V15.849Z" fill="black"/>
<path d="M66.8571 36.4204V51.8489H5.14286V10.7061H36V5.56323H5.14286C3.77889 5.56323 2.47078 6.10507 1.50631 7.06954C0.541835 8.03401 0 9.34212 0 10.7061V51.8489C0 53.2129 0.541835 54.521 1.50631 55.4855C2.47078 56.45 3.77889 56.9918 5.14286 56.9918H25.7143V67.2775H15.4286V72.4204H56.5714V67.2775H46.2857V56.9918H66.8571C68.2211 56.9918 69.5292 56.45 70.4937 55.4855C71.4582 54.521 72 53.2129 72 51.8489V36.4204H66.8571ZM41.1429 67.2775H30.8571V56.9918H41.1429V67.2775Z" fill="black"/>
</svg>
