<svg width="93" height="90" viewBox="0 0 93 90" fill="none" xmlns="http://www.w3.org/2000/svg">
<path opacity="0.6" d="M61.8446 38.6203L79.8549 27.5537C79.8549 27.5537 85.0225 41.2778 76.887 52.4378L61.8446 38.6203Z" fill="black" fill-opacity="0.2"/>
<path opacity="0.6" d="M53.7192 37.974L76.8181 23.724C76.2288 22.7635 75.5648 21.7961 74.819 20.8964C65.2592 9.36455 48.1315 7.76312 36.5996 17.3229C25.0677 26.8828 23.4663 44.0104 33.0261 55.5423C42.5859 67.0742 59.7136 68.6757 71.2455 59.1159C72.227 58.3023 73.0997 57.4408 73.9386 56.5384L53.7192 37.974Z" fill="black" fill-opacity="0.2"/>
<path d="M43.0756 67.2889L18.2607 37.355L2.51684 50.4065L27.3317 80.3404L43.0756 67.2889Z" fill="black" fill-opacity="0.2"/>
</svg>
