<svg width="88" height="88" viewBox="0 0 88 88" fill="none" xmlns="http://www.w3.org/2000/svg">
<path opacity="0.77" d="M44 28.7504C52.3943 28.7504 59.2495 35.6057 59.2495 44C59.2495 52.3943 52.3943 59.2496 44 59.2496C35.6057 59.2496 28.7504 52.3943 28.7504 44C28.7504 35.6057 35.5358 28.7504 44 28.7504ZM44 0C19.7266 0 0 19.7266 0 44C0 68.2734 19.7266 88 44 88C68.2734 88 88 68.2734 88 44C88 19.7266 68.2734 0 44 0Z" fill="#FFD400" fill-opacity="0.2"/>
<path d="M39.7324 29.3799V0.0699576C39.7324 0.0699576 88.769 -3.63753 87.6497 49.4562L58.6195 48.407C58.6195 48.337 62.8167 28.1208 39.7324 29.3799Z" fill="#FFD400" fill-opacity="0.2"/>
</svg>
