<svg width="88" height="89" viewBox="0 0 88 89" fill="none" xmlns="http://www.w3.org/2000/svg">
<path opacity="0.77" d="M44 29.1708C52.3943 29.1708 59.2495 36.0261 59.2495 44.4204C59.2495 52.8147 52.3943 59.67 44 59.67C35.6057 59.67 28.7504 52.8147 28.7504 44.4204C28.7504 36.0261 35.5358 29.1708 44 29.1708ZM44 0.42041C19.7266 0.42041 0 20.147 0 44.4204C0 68.6939 19.7266 88.4204 44 88.4204C68.2734 88.4204 88 68.6939 88 44.4204C88 20.147 68.2734 0.42041 44 0.42041Z" fill="black" fill-opacity="0.2"/>
<path d="M39.7329 29.8003V0.490368C39.7329 0.490368 88.7695 -3.21712 87.6502 49.8767L58.62 48.8274C58.62 48.7574 62.8172 28.5412 39.7329 29.8003Z" fill="black" fill-opacity="0.2"/>
</svg>
